Dinish-Bold.ufo
<glyph name="dollar" format="2">
  <advance width="514"/>
  <unicode hex="0024"/>
  <outline>
    <contour>
      <point x="304" y="35" type="curve"/>
      <point x="304" y="-61" type="line"/>
      <point x="199" y="-61" type="line"/>
      <point x="199" y="33" type="line"/>
      <point x="89.8771" y="50.0946"/>
      <point x="35.6084" y="125.041"/>
      <point x="30" y="232" type="curve"/>
      <point x="147" y="232" type="line"/>
      <point x="154.542" y="167.542"/>
      <point x="184.506" y="139"/>
      <point x="250" y="139" type="curve" smooth="yes"/>
      <point x="304.128" y="139"/>
      <point x="338" y="162.021"/>
      <point x="338" y="219" type="curve" smooth="yes"/>
      <point x="338" y="238.558"/>
      <point x="334.612" y="259.053"/>
      <point x="321" y="274" type="curve" smooth="yes"/>
      <point x="269.496" y="330.555"/>
      <point x="45" y="276.492"/>
      <point x="45" y="488" type="curve" smooth="yes"/>
      <point x="45" y="587.919"/>
      <point x="101.337" y="656.678"/>
      <point x="199" y="677" type="curve"/>
      <point x="199" y="758" type="line"/>
      <point x="304" y="758" type="line"/>
      <point x="304" y="676" type="line"/>
      <point x="399.34" y="654.359"/>
      <point x="448.402" y="585.466"/>
      <point x="454" y="490" type="curve"/>
      <point x="333" y="490" type="line"/>
      <point x="327.446" y="544.343"/>
      <point x="304.465" y="574"/>
      <point x="247" y="574" type="curve" smooth="yes"/>
      <point x="197.316" y="574"/>
      <point x="168" y="548.361"/>
      <point x="168" y="498" type="curve" smooth="yes"/>
      <point x="168" y="354.141"/>
      <point x="463" y="485.388"/>
      <point x="463" y="229" type="curve" smooth="yes"/>
      <point x="463" y="122.629"/>
      <point x="408.42" y="55.8511"/>
    </contour>
  </outline>
</glyph>
<glyph name="percent" format="2">
  <advance width="925"/>
  <unicode hex="0025"/>
  <outline>
    <contour>
      <point x="41" y="423" type="curve" smooth="yes"/>
      <point x="41" y="568" type="line" smooth="yes"/>
      <point x="41" y="659.142"/>
      <point x="84.9402" y="713"/>
      <point x="179" y="713" type="curve" smooth="yes"/>
      <point x="276.067" y="713"/>
      <point x="316" y="662.129"/>
      <point x="316" y="568" type="curve" smooth="yes"/>
      <point x="316" y="423" type="line" smooth="yes"/>
      <point x="316" y="329.426"/>
      <point x="279.044" y="270"/>
      <point x="179" y="270" type="curve" smooth="yes"/>
      <point x="78.3319" y="270"/>
      <point x="41" y="328.453"/>
    </contour>
    <contour>
      <point x="609" y="712" type="line"/>
      <point x="711" y="712" type="line"/>
      <point x="315" y="0" type="line"/>
      <point x="215" y="0" type="line"/>
    </contour>
    <contour>
      <point x="211" y="428" type="curve" smooth="yes"/>
      <point x="211" y="555" type="line" smooth="yes"/>
      <point x="211" y="580.161"/>
      <point x="214.208" y="623"/>
      <point x="179" y="623" type="curve" smooth="yes"/>
      <point x="144.451" y="623"/>
      <point x="146" y="580.092"/>
      <point x="146" y="555" type="curve" smooth="yes"/>
      <point x="146" y="428" type="line" smooth="yes"/>
      <point x="146" y="401.983"/>
      <point x="143.023" y="361"/>
      <point x="179" y="361" type="curve" smooth="yes"/>
      <point x="215.975" y="361"/>
      <point x="211" y="401.201"/>
    </contour>
    <contour>
      <point x="608" y="146" type="curve" smooth="yes"/>
      <point x="608" y="292" type="line" smooth="yes"/>
      <point x="608" y="382.698"/>
      <point x="652.792" y="436"/>
      <point x="746" y="436" type="curve" smooth="yes"/>
      <point x="841.438" y="436"/>
      <point x="884" y="385.457"/>
      <point x="884" y="292" type="curve" smooth="yes"/>
      <point x="884" y="146" type="line" smooth="yes"/>
      <point x="884" y="51.772"/>
      <point x="845.461" y="-6"/>
      <point x="746" y="-6" type="curve" smooth="yes"/>
      <point x="646.494" y="-6"/>
      <point x="608" y="51.6322"/>
    </contour>
    <contour>
      <point x="778" y="152" type="curve" smooth="yes"/>
      <point x="778" y="279" type="line" smooth="yes"/>
      <point x="778" y="305.939"/>
      <point x="783.399" y="346"/>
      <point x="746" y="346" type="curve" smooth="yes"/>
      <point x="710.361" y="346"/>
      <point x="714" y="304.902"/>
      <point x="714" y="279" type="curve" smooth="yes"/>
      <point x="714" y="152" type="line" smooth="yes"/>
      <point x="714" y="125.053"/>
      <point x="708.64" y="85"/>
      <point x="746" y="85" type="curve" smooth="yes"/>
      <point x="783.63" y="85"/>
      <point x="778" y="124.255"/>
    </contour>
  </outline>
</glyph>
<glyph name="ampersand" format="2">
  <advance width="612"/>
  <unicode hex="0026"/>
  <outline>
    <contour>
      <point x="565" y="110" type="curve"/>
      <point x="565" y="0" type="line"/>
      <point x="516" y="0" type="line" smooth="yes"/>
      <point x="463.332" y="0"/>
      <point x="433.292" y="25.6429"/>
      <point x="406" y="69" type="curve"/>
      <point x="358.099" y="13.4221"/>
      <point x="306.589" y="-11"/>
      <point x="233" y="-11" type="curve" smooth="yes"/>
      <point x="117.599" y="-11"/>
      <point x="46" y="59.0343"/>
      <point x="46" y="175" type="curve" smooth="yes"/>
      <point x="46" y="270.057"/>
      <point x="102.818" y="332.861"/>
      <point x="172" y="390" type="curve"/>
      <point x="138.36" y="436.851"/>
      <point x="97" y="494.067"/>
      <point x="97" y="554" type="curve" smooth="yes"/>
      <point x="97" y="651.691"/>
      <point x="175.237" y="718"/>
      <point x="270" y="718" type="curve" smooth="yes"/>
      <point x="365.383" y="718"/>
      <point x="442" y="653.438"/>
      <point x="442" y="555" type="curve" smooth="yes"/>
      <point x="442" y="474.104"/>
      <point x="384.734" y="420.328"/>
      <point x="327" y="372" type="curve"/>
      <point x="416" y="252" type="line"/>
      <point x="486" y="340" type="line"/>
      <point x="566" y="269" type="line"/>
      <point x="481" y="163" type="line"/>
      <point x="511.17" y="121.282"/>
      <point x="513.414" y="110"/>
    </contour>
    <contour>
      <point x="216" y="559" type="curve" smooth="yes"/>
      <point x="216" y="523.053"/>
      <point x="242.198" y="489.136"/>
      <point x="262" y="461" type="curve"/>
      <point x="292.474" y="486.595"/>
      <point x="326" y="515.951"/>
      <point x="326" y="559" type="curve" smooth="yes"/>
      <point x="326" y="591.182"/>
      <point x="305.071" y="620"/>
      <point x="271" y="620" type="curve" smooth="yes"/>
      <point x="235.435" y="620"/>
      <point x="216" y="592.395"/>
    </contour>
    <contour>
      <point x="341" y="158" type="curve"/>
      <point x="238" y="299" type="line"/>
      <point x="203.532" y="268.519"/>
      <point x="167" y="233.548"/>
      <point x="167" y="184" type="curve" smooth="yes"/>
      <point x="167" y="134.665"/>
      <point x="191.068" y="98"/>
      <point x="244" y="98" type="curve" smooth="yes"/>
      <point x="286.745" y="98"/>
      <point x="315.469" y="127.091"/>
    </contour>
  </outline>
</glyph>
<glyph name="six" format="2">
  <advance width="528"/>
  <unicode hex="0036"/>
  <outline>
    <contour>
      <point x="46" y="229" type="line" smooth="yes"/>
      <point x="46" y="286.356"/>
      <point x="66.0725" y="341.586"/>
      <point x="92" y="392" type="curve" smooth="yes"/>
      <point x="254" y="707" type="line"/>
      <point x="395" y="707" type="line"/>
      <point x="249" y="421" type="line"/>
      <point x="265.115" y="428.021"/>
      <point x="282.487" y="431"/>
      <point x="300" y="431" type="curve" smooth="yes"/>
      <point x="418.549" y="431"/>
      <point x="482" y="347.226"/>
      <point x="482" y="234" type="curve" smooth="yes"/>
      <point x="482" y="202" type="line" smooth="yes"/>
      <point x="482" y="68.6566"/>
      <point x="395.554" y="-11"/>
      <point x="264" y="-11" type="curve" smooth="yes"/>
      <point x="132.208" y="-11"/>
      <point x="46" y="62.8994"/>
      <point x="46" y="198" type="curve" smooth="yes"/>
    </contour>
    <contour>
      <point x="348" y="196" type="curve" smooth="yes"/>
      <point x="348" y="227" type="line" smooth="yes"/>
      <point x="348" y="280.917"/>
      <point x="320.898" y="319"/>
      <point x="264" y="319" type="curve" smooth="yes"/>
      <point x="208.258" y="319"/>
      <point x="181" y="280.805"/>
      <point x="181" y="228" type="curve" smooth="yes"/>
      <point x="181" y="195" type="line" smooth="yes"/>
      <point x="181" y="143.141"/>
      <point x="208.628" y="102"/>
      <point x="264" y="102" type="curve" smooth="yes"/>
      <point x="321.098" y="102"/>
      <point x="348" y="142.54"/>
    </contour>
  </outline>
</glyph>
<glyph name="B" format="2">
  <advance width="612"/>
  <unicode hex="0042"/>
  <outline>
    <contour>
      <point x="561" y="203" type="curve" smooth="yes"/>
      <point x="561" y="67.5731"/>
      <point x="474.605" y="0"/>
      <point x="344" y="0" type="curve" smooth="yes"/>
      <point x="60" y="0" type="line"/>
      <point x="60" y="707" type="line"/>
      <point x="333" y="707" type="line" smooth="yes"/>
      <point x="459.352" y="707"/>
      <point x="552" y="644.111"/>
      <point x="552" y="510" type="curve" smooth="yes"/>
      <point x="552" y="447.284"/>
      <point x="519.409" y="392.15"/>
      <point x="463" y="364" type="curve"/>
      <point x="529.988" y="334.697"/>
      <point x="561" y="273.899"/>
    </contour>
    <contour>
      <point x="195" y="590" type="line"/>
      <point x="195" y="418" type="line"/>
      <point x="323" y="418" type="line" smooth="yes"/>
      <point x="378.147" y="418"/>
      <point x="417" y="443"/>
      <point x="417" y="502" type="curve" smooth="yes"/>
      <point x="417" y="561.622"/>
      <point x="380.374" y="590"/>
      <point x="323" y="590" type="curve" smooth="yes"/>
    </contour>
    <contour>
      <point x="427" y="212" type="curve" smooth="yes"/>
      <point x="427" y="274.045"/>
      <point x="390.005" y="301"/>
      <point x="331" y="301" type="curve" smooth="yes"/>
      <point x="195" y="301" type="line"/>
      <point x="195" y="117" type="line"/>
      <point x="331" y="117" type="line" smooth="yes"/>
      <point x="392.75" y="117"/>
      <point x="427" y="149.518"/>
    </contour>
  </outline>
</glyph>
<glyph name="G" format="2">
  <advance width="614"/>
  <unicode hex="0047"/>
  <outline>
    <contour>
      <point x="51" y="273" type="curve" smooth="yes"/>
      <point x="51" y="435" type="line" smooth="yes"/>
      <point x="51" y="608.978"/>
      <point x="126.785" y="717"/>
      <point x="310" y="717" type="curve" smooth="yes"/>
      <point x="460.717" y="717"/>
      <point x="563.897" y="637.237"/>
      <point x="563" y="480" type="curve"/>
      <point x="429" y="480" type="line"/>
      <point x="430.69" y="554.664"/>
      <point x="382.24" y="599"/>
      <point x="309" y="599" type="curve" smooth="yes"/>
      <point x="204.657" y="599"/>
      <point x="186" y="514.093"/>
      <point x="186" y="428" type="curve" smooth="yes"/>
      <point x="186" y="275" type="line" smooth="yes"/>
      <point x="186" y="186.09"/>
      <point x="211.206" y="112"/>
      <point x="314" y="112" type="curve" smooth="yes"/>
      <point x="419.156" y="112"/>
      <point x="432.03" y="175.159"/>
      <point x="432.03" y="264.582" type="curve" smooth="yes"/>
      <point x="432" y="273" type="line"/>
      <point x="307" y="273" type="line"/>
      <point x="307" y="384" type="line"/>
      <point x="563" y="384" type="line"/>
      <point x="563" y="263" type="line" smooth="yes"/>
      <point x="563" y="92.2725"/>
      <point x="485.181" y="-8"/>
      <point x="308" y="-8" type="curve" smooth="yes"/>
      <point x="125.673" y="-8"/>
      <point x="51" y="100.301"/>
    </contour>
  </outline>
</glyph>
<glyph name="H" format="2">
  <advance width="623"/>
  <unicode hex="0048"/>
  <outline>
    <contour>
      <point x="563" y="707" type="line"/>
      <point x="563" y="0" type="line"/>
      <point x="429" y="0" type="line"/>
      <point x="429" y="299" type="line"/>
      <point x="195" y="299" type="line"/>
      <point x="195" y="0" type="line"/>
      <point x="60" y="0" type="line"/>
      <point x="60" y="707" type="line"/>
      <point x="195" y="707" type="line"/>
      <point x="195" y="416" type="line"/>
      <point x="429" y="416" type="line"/>
      <point x="429" y="707" type="line"/>
    </contour>
  </outline>
</glyph>
<glyph name="N" format="2">
  <advance width="649"/>
  <unicode hex="004E"/>
  <anchor x="325" y="707" name="top"/>
  <outline>
    <contour>
      <point x="589" y="707" type="line"/>
      <point x="589" y="0" type="line"/>
      <point x="455" y="0" type="line"/>
      <point x="195" y="441" type="line"/>
      <point x="195" y="0" type="line"/>
      <point x="60" y="0" type="line"/>
      <point x="60" y="707" type="line"/>
      <point x="195" y="707" type="line"/>
      <point x="455" y="264" type="line"/>
      <point x="455" y="707" type="line"/>
    </contour>
  </outline>
</glyph>
<glyph name="O" format="2">
  <advance width="614"/>
  <unicode hex="004F"/>
  <anchor x="306" y="707" name="top"/>
  <outline>
    <contour>
      <point x="51" y="272.339" type="curve" smooth="yes"/>
      <point x="51" y="433.674" type="line" smooth="yes"/>
      <point x="51" y="618.7"/>
      <point x="140.166" y="717"/>
      <point x="308" y="717" type="curve" smooth="yes"/>
      <point x="474.906" y="717"/>
      <point x="563" y="619.12"/>
      <point x="563" y="433.674" type="curve" smooth="yes"/>
      <point x="563" y="272.339" type="line" smooth="yes"/>
      <point x="563" y="89.6479"/>
      <point x="472.785" y="-8"/>
      <point x="304" y="-8" type="curve" smooth="yes"/>
      <point x="137.747" y="-8"/>
      <point x="51" y="88.1202"/>
    </contour>
    <contour>
      <point x="429" y="274.331" type="curve" smooth="yes"/>
      <point x="429" y="426.702" type="line" smooth="yes"/>
      <point x="429" y="539.907"/>
      <point x="387.712" y="597"/>
      <point x="305.844" y="597" type="curve" smooth="yes"/>
      <point x="224.654" y="597"/>
      <point x="186" y="542.073"/>
      <point x="186" y="426.702" type="curve" smooth="yes"/>
      <point x="186" y="274.331" type="line" smooth="yes"/>
      <point x="186" y="165.137"/>
      <point x="225.165" y="112"/>
      <point x="305.646" y="112" type="curve" smooth="yes"/>
      <point x="386.919" y="112"/>
      <point x="429" y="167.377"/>
    </contour>
  </outline>
  <guideline angle="90" name="vertical" x="306" y="0"/>
  <guideline angle="0" name="horizontal" x="0" y="707"/>
</glyph>
<glyph name="P" format="2">
  <advance width="580"/>
  <unicode hex="0050"/>
  <anchor x="286" y="707" name="top"/>
  <outline>
    <contour>
      <point x="556" y="484" type="curve" smooth="yes"/>
      <point x="556" y="351.834"/>
      <point x="466.344" y="268"/>
      <point x="325" y="268" type="curve" smooth="yes"/>
      <point x="195" y="268" type="line"/>
      <point x="195" y="0" type="line"/>
      <point x="60" y="0" type="line"/>
      <point x="60" y="707" type="line"/>
      <point x="325" y="707" type="line" smooth="yes"/>
      <point x="467.613" y="707"/>
      <point x="556" y="621.674"/>
    </contour>
    <contour>
      <point x="422" y="484" type="curve" smooth="yes"/>
      <point x="422" y="552.279"/>
      <point x="384.991" y="590"/>
      <point x="318" y="590" type="curve" smooth="yes"/>
      <point x="195" y="590" type="line"/>
      <point x="195" y="386" type="line"/>
      <point x="318" y="386" type="line" smooth="yes"/>
      <point x="382.319" y="386"/>
      <point x="422" y="423.391"/>
    </contour>
  </outline>
  <guideline angle="90" name="vertical" x="286" y="0"/>
  <guideline angle="0" name="horizontal" x="0" y="707"/>
</glyph>
<glyph name="Q" format="2">
  <advance width="614"/>
  <unicode hex="0051"/>
  <anchor x="308" y="707" name="top"/>
  <outline>
    <contour>
      <point x="51" y="273" type="curve" smooth="yes"/>
      <point x="51" y="435" type="line" smooth="yes"/>
      <point x="51" y="608.968"/>
      <point x="125.023" y="717"/>
      <point x="308" y="717" type="curve" smooth="yes"/>
      <point x="492.054" y="717"/>
      <point x="563" y="606.961"/>
      <point x="563" y="435" type="curve" smooth="yes"/>
      <point x="563" y="273" type="line" smooth="yes"/>
      <point x="563" y="185.236"/>
      <point x="543.223" y="89.561"/>
      <point x="467" y="36" type="curve"/>
      <point x="542" y="-101" type="line"/>
      <point x="439" y="-158" type="line"/>
      <point x="356" y="-5" type="line"/>
      <point x="338.755" y="-7.1165"/>
      <point x="321.369" y="-8"/>
      <point x="304" y="-8" type="curve" smooth="yes"/>
      <point x="121.7" y="-8"/>
      <point x="51" y="100.798"/>
    </contour>
    <contour>
      <point x="186" y="275" type="line" smooth="yes"/>
      <point x="186" y="186.808"/>
      <point x="204.427" y="112"/>
      <point x="308" y="112" type="curve" smooth="yes"/>
      <point x="408.183" y="112"/>
      <point x="429" y="190.467"/>
      <point x="429" y="275" type="curve" smooth="yes"/>
      <point x="429" y="428" type="line" smooth="yes"/>
      <point x="429" y="513.359"/>
      <point x="411.658" y="599"/>
      <point x="308" y="599" type="curve" smooth="yes"/>
      <point x="201.119" y="599"/>
      <point x="186" y="516.568"/>
      <point x="186" y="428" type="curve" smooth="yes"/>
    </contour>
  </outline>
  <guideline angle="90" name="vertical" x="308" y="0"/>
  <guideline angle="0" name="horizontal" x="0" y="707"/>
</glyph>
<glyph name="R" format="2">
  <advance width="614"/>
  <unicode hex="0052"/>
  <outline>
    <contour>
      <point x="295" y="287" type="line"/>
      <point x="195" y="287" type="line"/>
      <point x="195" y="0" type="line"/>
      <point x="60" y="0" type="line"/>
      <point x="60" y="707" type="line"/>
      <point x="329" y="707" type="line" smooth="yes"/>
      <point x="459.526" y="707"/>
      <point x="555" y="631.827"/>
      <point x="555" y="496" type="curve" smooth="yes"/>
      <point x="555" y="408.476"/>
      <point x="513.906" y="337.977"/>
      <point x="430" y="307" type="curve"/>
      <point x="584" y="0" type="line"/>
      <point x="429" y="0" type="line"/>
    </contour>
    <contour>
      <point x="195" y="398" type="line"/>
      <point x="322" y="398" type="line" smooth="yes"/>
      <point x="384.455" y="398"/>
      <point x="421" y="433.165"/>
      <point x="421" y="496" type="curve" smooth="yes"/>
      <point x="421" y="554.111"/>
      <point x="378.419" y="590"/>
      <point x="322" y="590" type="curve" smooth="yes"/>
      <point x="195" y="590" type="line"/>
    </contour>
  </outline>
</glyph>
<glyph name="S" format="2">
  <advance width="561"/>
  <unicode hex="0053"/>
  <anchor x="276" y="707" name="top"/>
  <outline>
    <contour>
      <point x="26" y="215" type="curve"/>
      <point x="153" y="215" type="line"/>
      <point x="159.856" y="137.146"/>
      <point x="206.083" y="109"/>
      <point x="280" y="109" type="curve" smooth="yes"/>
      <point x="342.648" y="109"/>
      <point x="393" y="131.51"/>
      <point x="393" y="202" type="curve" smooth="yes"/>
      <point x="393" y="377.531"/>
      <point x="41" y="221.751"/>
      <point x="41" y="504" type="curve" smooth="yes"/>
      <point x="41" y="643.515"/>
      <point x="148.068" y="717"/>
      <point x="279" y="717" type="curve" smooth="yes"/>
      <point x="412.525" y="717"/>
      <point x="503.643" y="641.826"/>
      <point x="513" y="506" type="curve"/>
      <point x="384" y="506" type="line"/>
      <point x="384" y="573.464"/>
      <point x="340.069" y="604"/>
      <point x="276" y="604" type="curve" smooth="yes"/>
      <point x="218.09" y="604"/>
      <point x="171" y="577.479"/>
      <point x="171" y="514" type="curve" smooth="yes"/>
      <point x="171" y="352.028"/>
      <point x="525" y="496.835"/>
      <point x="525" y="213" type="curve" smooth="yes"/>
      <point x="525" y="59.7795"/>
      <point x="414.127" y="-6"/>
      <point x="273" y="-6" type="curve" smooth="yes"/>
      <point x="128.686" y="-6"/>
      <point x="35.3409" y="66.9265"/>
    </contour>
  </outline>
  <guideline angle="90" name="vertical" x="276" y="0"/>
  <guideline angle="0" name="horizontal" x="0" y="707"/>
</glyph>
<glyph name="U" format="2">
  <advance width="628"/>
  <unicode hex="0055"/>
  <anchor x="314" y="707" name="top"/>
  <outline>
    <contour>
      <point x="60" y="233" type="curve" smooth="yes"/>
      <point x="60" y="707" type="line"/>
      <point x="195" y="707" type="line"/>
      <point x="195" y="238" type="line" smooth="yes"/>
      <point x="195" y="163.609"/>
      <point x="235.298" y="111"/>
      <point x="313" y="111" type="curve" smooth="yes"/>
      <point x="390.538" y="111"/>
      <point x="433" y="163.018"/>
      <point x="433" y="238" type="curve" smooth="yes"/>
      <point x="433" y="707" type="line"/>
      <point x="568" y="707" type="line"/>
      <point x="568" y="233" type="line" smooth="yes"/>
      <point x="568" y="87.7161"/>
      <point x="453.104" y="-6"/>
      <point x="313" y="-6" type="curve" smooth="yes"/>
      <point x="173.733" y="-6"/>
      <point x="60" y="89.2301"/>
    </contour>
  </outline>
</glyph>
<glyph name="asciicircum" format="2">
  <advance width="541"/>
  <unicode hex="005E"/>
  <outline>
    <contour>
      <point x="217" y="712" type="line"/>
      <point x="324" y="712" type="line"/>
      <point x="498" y="278" type="line"/>
      <point x="392" y="278" type="line"/>
      <point x="270" y="589" type="line"/>
      <point x="148" y="278" type="line"/>
      <point x="43" y="278" type="line"/>
    </contour>
  </outline>
</glyph>
<glyph name="b" format="2">
  <advance width="527"/>
  <unicode hex="0062"/>
  <outline>
    <contour>
      <point x="179" y="49" type="curve"/>
      <point x="179" y="0" type="line"/>
      <point x="55" y="0" type="line"/>
      <point x="55" y="707" type="line"/>
      <point x="182" y="707" type="line"/>
      <point x="182" y="478" type="line"/>
      <point x="210.563" y="517.58"/>
      <point x="252.169" y="539"/>
      <point x="301" y="539" type="curve" smooth="yes"/>
      <point x="431.476" y="539"/>
      <point x="481" y="435.227"/>
      <point x="481" y="319" type="curve" smooth="yes"/>
      <point x="481" y="214" type="line" smooth="yes"/>
      <point x="481" y="101.356"/>
      <point x="432.906" y="-6"/>
      <point x="305" y="-6" type="curve" smooth="yes"/>
      <point x="255.895" y="-6"/>
      <point x="210.56" y="10.0079"/>
    </contour>
    <contour>
      <point x="354" y="218" type="curve" smooth="yes"/>
      <point x="354" y="314" type="line" smooth="yes"/>
      <point x="354" y="371.537"/>
      <point x="336.538" y="426"/>
      <point x="269" y="426" type="curve" smooth="yes"/>
      <point x="204.387" y="426"/>
      <point x="181" y="370.371"/>
      <point x="181" y="314" type="curve" smooth="yes"/>
      <point x="181" y="218" type="line" smooth="yes"/>
      <point x="181" y="158.685"/>
      <point x="205.096" y="106"/>
      <point x="272" y="106" type="curve" smooth="yes"/>
      <point x="338.551" y="106"/>
      <point x="354" y="162.342"/>
    </contour>
  </outline>
</glyph>
<glyph name="c" format="2">
  <advance width="517"/>
  <unicode hex="0063"/>
  <outline>
    <contour>
      <point x="46" y="217" type="curve" smooth="yes"/>
      <point x="46" y="316" type="line" smooth="yes"/>
      <point x="46" y="456.227"/>
      <point x="119.061" y="539"/>
      <point x="262" y="539" type="curve" smooth="yes"/>
      <point x="391.105" y="539"/>
      <point x="471.556" y="471.92"/>
      <point x="471" y="339" type="curve"/>
      <point x="350" y="339" type="line"/>
      <point x="351.306" y="393.602"/>
      <point x="318.153" y="426"/>
      <point x="264" y="426" type="curve" smooth="yes"/>
      <point x="194.823" y="426"/>
      <point x="172" y="375.517"/>
      <point x="172" y="314" type="curve" smooth="yes"/>
      <point x="172" y="218" type="line" smooth="yes"/>
      <point x="172" y="155.198"/>
      <point x="193.277" y="106"/>
      <point x="264" y="106" type="curve" smooth="yes"/>
      <point x="316.794" y="106"/>
      <point x="351.567" y="135.429"/>
      <point x="350" y="190" type="curve"/>
      <point x="471" y="190" type="line"/>
      <point x="471" y="183" type="line" smooth="yes"/>
      <point x="471" y="56.6576"/>
      <point x="381.157" y="-6"/>
      <point x="262" y="-6" type="curve" smooth="yes"/>
      <point x="117.813" y="-6"/>
      <point x="46" y="75.5634"/>
    </contour>
  </outline>
</glyph>
<glyph name="d" format="2">
  <advance width="526"/>
  <unicode hex="0064"/>
  <anchor x="408" y="707" name="top"/>
  <outline>
    <contour>
      <point x="46" y="214" type="curve" smooth="yes"/>
      <point x="46" y="319" type="line" smooth="yes"/>
      <point x="46" y="431.442"/>
      <point x="92.9113" y="539"/>
      <point x="221" y="539" type="curve" smooth="yes"/>
      <point x="270.223" y="539"/>
      <point x="315.89" y="518.317"/>
      <point x="345" y="478" type="curve"/>
      <point x="345" y="707" type="line"/>
      <point x="471" y="707" type="line"/>
      <point x="471" y="0" type="line"/>
      <point x="347" y="0" type="line"/>
      <point x="347" y="49" type="line"/>
      <point x="316.777" y="10.4585"/>
      <point x="269.821" y="-6"/>
      <point x="222" y="-6" type="curve" smooth="yes"/>
      <point x="94.4652" y="-6"/>
      <point x="46" y="101.649"/>
    </contour>
    <contour>
      <point x="345" y="218" type="curve" smooth="yes"/>
      <point x="345" y="314" type="line" smooth="yes"/>
      <point x="345" y="370.012"/>
      <point x="322.607" y="426"/>
      <point x="258" y="426" type="curve" smooth="yes"/>
      <point x="190.549" y="426"/>
      <point x="173" y="371.472"/>
      <point x="173" y="314" type="curve" smooth="yes"/>
      <point x="173" y="218" type="line" smooth="yes"/>
      <point x="173" y="162.517"/>
      <point x="188.659" y="106"/>
      <point x="255" y="106" type="curve" smooth="yes"/>
      <point x="322.488" y="106"/>
      <point x="345" y="158.581"/>
    </contour>
  </outline>
  <guideline angle="90" name="vertical" x="408" y="0"/>
  <guideline angle="0" name="horizontal" x="0" y="707"/>
</glyph>
<glyph name="e" format="2">
  <advance width="529"/>
  <unicode hex="0065"/>
  <anchor x="265" y="532" name="top"/>
  <outline>
    <contour>
      <point x="172" y="228" type="line"/>
      <point x="172" y="214" type="line" smooth="yes"/>
      <point x="172" y="146.516"/>
      <point x="202.938" y="103"/>
      <point x="274" y="103" type="curve" smooth="yes"/>
      <point x="319.975" y="103"/>
      <point x="349.682" y="118.957"/>
      <point x="358" y="167" type="curve"/>
      <point x="479" y="167" type="line"/>
      <point x="479" y="162" type="line" smooth="yes"/>
      <point x="479" y="42.8701"/>
      <point x="374.087" y="-6"/>
      <point x="269" y="-6" type="curve" smooth="yes"/>
      <point x="117.421" y="-6"/>
      <point x="46" y="88.9327"/>
      <point x="46" y="234" type="curve" smooth="yes"/>
      <point x="46" y="299" type="line" smooth="yes"/>
      <point x="46" y="441.794"/>
      <point x="114.19" y="539"/>
      <point x="265" y="539" type="curve" smooth="yes"/>
      <point x="412.675" y="539"/>
      <point x="483" y="438.543"/>
      <point x="483" y="299" type="curve" smooth="yes"/>
      <point x="483" y="228" type="line"/>
    </contour>
    <contour>
      <point x="172" y="315" type="line"/>
      <point x="356" y="315" type="line"/>
      <point x="356" y="329" type="line" smooth="yes"/>
      <point x="356" y="389.39"/>
      <point x="329.301" y="430"/>
      <point x="265" y="430" type="curve" smooth="yes"/>
      <point x="195.475" y="430"/>
      <point x="171.966" y="381.739"/>
      <point x="171.966" y="319.154" type="curve" smooth="yes"/>
    </contour>
  </outline>
  <guideline angle="90" name="vertical" x="265" y="0"/>
  <guideline angle="0" name="horizontal" x="0" y="532"/>
</glyph>
<glyph name="f" format="2">
  <advance width="342"/>
  <unicode hex="0066"/>
  <outline>
    <contour>
      <point x="219" y="532" type="curve"/>
      <point x="314" y="532" type="line"/>
      <point x="314" y="443" type="line"/>
      <point x="219" y="443" type="line"/>
      <point x="219" y="0" type="line"/>
      <point x="93" y="0" type="line"/>
      <point x="93" y="443" type="line"/>
      <point x="37" y="443" type="line"/>
      <point x="37" y="532" type="line"/>
      <point x="93" y="532" type="line"/>
      <point x="93" y="564" type="line" smooth="yes"/>
      <point x="93" y="656.254"/>
      <point x="150.413" y="707"/>
      <point x="241" y="707" type="curve" smooth="yes"/>
      <point x="314" y="707" type="line"/>
      <point x="314" y="621" type="line"/>
      <point x="225.67" y="621"/>
      <point x="219" y="621.624"/>
    </contour>
  </outline>
</glyph>
<glyph name="j" format="2">
  <advance width="246"/>
  <unicode hex="006A"/>
  <outline>
    <contour>
      <point x="57" y="707" type="line"/>
      <point x="186" y="707" type="line"/>
      <point x="186" y="605" type="line"/>
      <point x="57" y="605" type="line"/>
    </contour>
    <contour>
      <point x="-34" y="-50" type="line"/>
      <point x="21.2304" y="-50"/>
      <point x="60" y="-59.0409"/>
      <point x="60" y="10" type="curve" smooth="yes"/>
      <point x="60" y="532" type="line"/>
      <point x="186" y="532" type="line"/>
      <point x="186" y="2" type="line" smooth="yes"/>
      <point x="186" y="-100.435"/>
      <point x="129.112" y="-160"/>
      <point x="26" y="-160" type="curve" smooth="yes"/>
      <point x="-34" y="-160" type="line"/>
    </contour>
  </outline>
</glyph>
<glyph name="l" format="2">
  <advance width="293"/>
  <unicode hex="006C"/>
  <anchor x="119" y="707" name="top"/>
  <outline>
    <contour>
      <point x="55" y="162" type="curve" smooth="yes"/>
      <point x="55" y="707" type="line"/>
      <point x="182" y="707" type="line"/>
      <point x="182" y="170" type="line" smooth="yes"/>
      <point x="182" y="115.192"/>
      <point x="222.463" y="110"/>
      <point x="275" y="110" type="curve"/>
      <point x="275" y="0" type="line"/>
      <point x="217" y="0" type="line" smooth="yes"/>
      <point x="115.636" y="0"/>
      <point x="55" y="60.6358"/>
    </contour>
  </outline>
  <guideline angle="90" name="vertical" x="119" y="0"/>
  <guideline angle="0" name="horizontal" x="0" y="707"/>
</glyph>
<glyph name="m" format="2">
  <advance width="827"/>
  <unicode hex="006D"/>
  <anchor x="429" y="532" name="top"/>
  <outline>
    <contour>
      <point x="55" y="532" type="line"/>
      <point x="179" y="532" type="line"/>
      <point x="179" y="484" type="line"/>
      <point x="211.238" y="518.219"/>
      <point x="257.885" y="539"/>
      <point x="305" y="539" type="curve" smooth="yes"/>
      <point x="360.012" y="539"/>
      <point x="408.884" y="517.636"/>
      <point x="441" y="472" type="curve"/>
      <point x="480.865" y="514.82"/>
      <point x="533.261" y="539"/>
      <point x="592" y="539" type="curve" smooth="yes"/>
      <point x="708.728" y="539"/>
      <point x="772" y="459.425"/>
      <point x="772" y="347" type="curve" smooth="yes"/>
      <point x="772" y="0" type="line"/>
      <point x="645" y="0" type="line"/>
      <point x="645" y="332" type="line" smooth="yes"/>
      <point x="645" y="384.627"/>
      <point x="618.578" y="426"/>
      <point x="562" y="426" type="curve" smooth="yes"/>
      <point x="507.838" y="426"/>
      <point x="477" y="387.076"/>
      <point x="477" y="335" type="curve" smooth="yes"/>
      <point x="477" y="0" type="line"/>
      <point x="350" y="0" type="line"/>
      <point x="350" y="332" type="line" smooth="yes"/>
      <point x="350" y="384.627"/>
      <point x="323.578" y="426"/>
      <point x="267" y="426" type="curve" smooth="yes"/>
      <point x="211.838" y="426"/>
      <point x="182" y="384.068"/>
      <point x="182" y="332" type="curve" smooth="yes"/>
      <point x="182" y="0" type="line"/>
      <point x="55" y="0" type="line"/>
    </contour>
  </outline>
  <guideline angle="90" name="vertical" x="429" y="0"/>
  <guideline angle="0" name="horizontal" x="0" y="532"/>
</glyph>
<glyph name="n" format="2">
  <advance width="532"/>
  <unicode hex="006E"/>
  <anchor x="266" y="532" name="top"/>
  <outline>
    <contour>
      <point x="55" y="532" type="line"/>
      <point x="179" y="532" type="line"/>
      <point x="179" y="484" type="line"/>
      <point x="210.584" y="519.35"/>
      <point x="257.835" y="539"/>
      <point x="305" y="539" type="curve" smooth="yes"/>
      <point x="420.491" y="539"/>
      <point x="477" y="455.354"/>
      <point x="477" y="347" type="curve" smooth="yes"/>
      <point x="477" y="0" type="line"/>
      <point x="350" y="0" type="line"/>
      <point x="350" y="332" type="line" smooth="yes"/>
      <point x="350" y="383.827"/>
      <point x="322.689" y="426"/>
      <point x="267" y="426" type="curve" smooth="yes"/>
      <point x="212.699" y="426"/>
      <point x="182" y="383.278"/>
      <point x="182" y="332" type="curve" smooth="yes"/>
      <point x="182" y="0" type="line"/>
      <point x="55" y="0" type="line"/>
    </contour>
  </outline>
</glyph>
<glyph name="p" format="2">
  <advance width="527"/>
  <unicode hex="0070"/>
  <outline>
    <contour>
      <point x="55" y="532" type="line"/>
      <point x="179" y="532" type="line"/>
      <point x="179" y="478" type="line"/>
      <point x="209.128" y="517.026"/>
      <point x="251.48" y="539"/>
      <point x="301" y="539" type="curve" smooth="yes"/>
      <point x="431.476" y="539"/>
      <point x="481" y="435.227"/>
      <point x="481" y="319" type="curve" smooth="yes"/>
      <point x="481" y="214" type="line" smooth="yes"/>
      <point x="481" y="101.356"/>
      <point x="432.906" y="-6"/>
      <point x="305" y="-6" type="curve" smooth="yes"/>
      <point x="257.042" y="-6"/>
      <point x="212.695" y="9.82902"/>
      <point x="182" y="48" type="curve"/>
      <point x="182" y="-160" type="line"/>
      <point x="55" y="-160" type="line"/>
    </contour>
    <contour>
      <point x="354" y="218" type="curve" smooth="yes"/>
      <point x="354" y="314" type="line" smooth="yes"/>
      <point x="354" y="371.537"/>
      <point x="336.538" y="426"/>
      <point x="269" y="426" type="curve" smooth="yes"/>
      <point x="204.387" y="426"/>
      <point x="181" y="370.371"/>
      <point x="181" y="314" type="curve" smooth="yes"/>
      <point x="181" y="218" type="line" smooth="yes"/>
      <point x="181" y="158.685"/>
      <point x="205.096" y="106"/>
      <point x="272" y="106" type="curve" smooth="yes"/>
      <point x="338.551" y="106"/>
      <point x="354" y="162.342"/>
    </contour>
  </outline>
</glyph>
<glyph name="s" format="2">
  <advance width="485"/>
  <unicode hex="0073"/>
  <anchor x="243" y="532" name="top"/>
  <outline>
    <contour>
      <point x="37" y="162" type="curve"/>
      <point x="156" y="162" type="line"/>
      <point x="154.343" y="113.647"/>
      <point x="202.617" y="96"/>
      <point x="243" y="96" type="curve" smooth="yes"/>
      <point x="281.854" y="96"/>
      <point x="332" y="107.615"/>
      <point x="332" y="156" type="curve" smooth="yes"/>
      <point x="332" y="264.29"/>
      <point x="44" y="159.806"/>
      <point x="44" y="374" type="curve" smooth="yes"/>
      <point x="44" y="485.747"/>
      <point x="142.368" y="539"/>
      <point x="243" y="539" type="curve" smooth="yes"/>
      <point x="341.761" y="539"/>
      <point x="443.678" y="489.893"/>
      <point x="443" y="378" type="curve"/>
      <point x="326" y="378" type="line"/>
      <point x="328.398" y="425.209"/>
      <point x="281.21" y="439"/>
      <point x="243" y="439" type="curve" smooth="yes"/>
      <point x="206.798" y="439"/>
      <point x="163" y="427.409"/>
      <point x="163" y="383" type="curve" smooth="yes"/>
      <point x="163" y="274.658"/>
      <point x="453" y="379.667"/>
      <point x="453" y="165" type="curve" smooth="yes"/>
      <point x="453" y="42.3995"/>
      <point x="347.009" y="-6"/>
      <point x="239" y="-6" type="curve" smooth="yes"/>
      <point x="133.152" y="-6"/>
      <point x="36.0991" y="43.7825"/>
    </contour>
  </outline>
</glyph>
<glyph name="w" format="2">
  <advance width="753"/>
  <unicode hex="0077"/>
  <anchor x="376" y="532" name="top"/>
  <outline>
    <contour>
      <point x="9" y="532" type="line"/>
      <point x="143" y="532" type="line"/>
      <point x="226" y="195" type="line"/>
      <point x="329" y="532" type="line"/>
      <point x="424" y="532" type="line"/>
      <point x="526" y="195" type="line"/>
      <point x="609" y="532" type="line"/>
      <point x="744" y="532" type="line"/>
      <point x="588" y="0" type="line"/>
      <point x="480" y="0" type="line"/>
      <point x="376" y="345" type="line"/>
      <point x="272" y="0" type="line"/>
      <point x="165" y="0" type="line"/>
    </contour>
  </outline>
  <guideline angle="90" name="vertical" x="376" y="0"/>
  <guideline angle="0" name="horizontal" x="0" y="532"/>
</glyph>
<glyph name="cent" format="2">
  <advance width="560"/>
  <unicode hex="00A2"/>
  <outline>
    <contour>
      <point x="350" y="339" type="line"/>
      <point x="350" y="394.087"/>
      <point x="320.213" y="426"/>
      <point x="264" y="426" type="curve" smooth="yes"/>
      <point x="194.5" y="426"/>
      <point x="172" y="376.48"/>
      <point x="172" y="314" type="curve" smooth="yes"/>
      <point x="172" y="218" type="line" smooth="yes"/>
      <point x="172" y="154.721"/>
      <point x="192.447" y="106"/>
      <point x="264" y="106" type="curve" smooth="yes"/>
      <point x="319.18" y="106"/>
      <point x="350" y="134.833"/>
      <point x="350" y="190" type="curve"/>
      <point x="471" y="190" type="line"/>
      <point x="471" y="183" type="line" smooth="yes"/>
      <point x="471" y="82.9858"/>
      <point x="412.843" y="15.9442"/>
      <point x="315" y="-2" type="curve"/>
      <point x="315" y="-102" type="line"/>
      <point x="255" y="-102" type="line"/>
      <point x="255" y="-6" type="line"/>
      <point x="113.522" y="-3.8553"/>
      <point x="46" y="79.6568"/>
      <point x="46" y="217" type="curve" smooth="yes"/>
      <point x="46" y="316" type="line" smooth="yes"/>
      <point x="46" y="451.939"/>
      <point x="114.801" y="536.87"/>
      <point x="255" y="539" type="curve"/>
      <point x="255" y="650" type="line"/>
      <point x="315" y="650" type="line"/>
      <point x="315" y="535" type="line"/>
      <point x="423.637" y="515.474"/>
      <point x="471" y="446.128"/>
      <point x="471" y="339" type="curve"/>
    </contour>
  </outline>
</glyph>
<glyph name="currency" format="2">
  <advance width="609"/>
  <unicode hex="00A4"/>
  <outline>
    <contour>
      <point x="412" y="143" type="line"/>
      <point x="379.342" y="123.608"/>
      <point x="341.793" y="115"/>
      <point x="304" y="115" type="curve" smooth="yes"/>
      <point x="266.422" y="115"/>
      <point x="229.444" y="123.73"/>
      <point x="197" y="143" type="curve"/>
      <point x="130" y="77" type="line"/>
      <point x="55" y="152" type="line"/>
      <point x="123" y="219" type="line"/>
      <point x="104.013" y="250.644"/>
      <point x="96" y="287.335"/>
      <point x="96" y="324" type="curve" smooth="yes"/>
      <point x="96" y="360.606"/>
      <point x="106.535" y="396.008"/>
      <point x="124" y="428" type="curve"/>
      <point x="55" y="497" type="line"/>
      <point x="130" y="571" type="line"/>
      <point x="198" y="504" type="line"/>
      <point x="230.556" y="521.765"/>
      <point x="266.916" y="531"/>
      <point x="304" y="531" type="curve" smooth="yes"/>
      <point x="341.314" y="531"/>
      <point x="378.216" y="521.884"/>
      <point x="411" y="504" type="curve"/>
      <point x="479" y="571" type="line"/>
      <point x="553" y="497" type="line"/>
      <point x="485" y="428" type="line"/>
      <point x="502.465" y="396.008"/>
      <point x="513" y="360.606"/>
      <point x="513" y="324" type="curve" smooth="yes"/>
      <point x="513" y="287.078"/>
      <point x="504.624" y="250.08"/>
      <point x="486" y="218" type="curve"/>
      <point x="554" y="151" type="line"/>
      <point x="479" y="76" type="line"/>
    </contour>
    <contour>
      <point x="410" y="324" type="curve" smooth="yes"/>
      <point x="410" y="384.909"/>
      <point x="365.16" y="431"/>
      <point x="304" y="431" type="curve" smooth="yes"/>
      <point x="242.451" y="431"/>
      <point x="200" y="384.376"/>
      <point x="200" y="324" type="curve" smooth="yes"/>
      <point x="200" y="262.604"/>
      <point x="240.798" y="215"/>
      <point x="304" y="215" type="curve" smooth="yes"/>
      <point x="366.793" y="215"/>
      <point x="410" y="262.094"/>
    </contour>
  </outline>
</glyph>
<glyph name="yen" format="2">
  <advance width="508"/>
  <unicode hex="00A5"/>
  <outline>
    <contour>
      <point x="187" y="120" type="line"/>
      <point x="55" y="120" type="line"/>
      <point x="55" y="210" type="line"/>
      <point x="187" y="210" type="line"/>
      <point x="187" y="266" type="line"/>
      <point x="55" y="266" type="line"/>
      <point x="55" y="356" type="line"/>
      <point x="166" y="356" type="line"/>
      <point x="7" y="707" type="line"/>
      <point x="145" y="707" type="line"/>
      <point x="257" y="423" type="line"/>
      <point x="365" y="707" type="line"/>
      <point x="502" y="707" type="line"/>
      <point x="343" y="356" type="line"/>
      <point x="454" y="356" type="line"/>
      <point x="454" y="266" type="line"/>
      <point x="322" y="266" type="line"/>
      <point x="322" y="210" type="line"/>
      <point x="454" y="210" type="line"/>
      <point x="454" y="120" type="line"/>
      <point x="322" y="120" type="line"/>
      <point x="322" y="0" type="line"/>
      <point x="187" y="0" type="line"/>
    </contour>
  </outline>
</glyph>
<glyph name="section" format="2">
  <advance width="523"/>
  <unicode hex="00A7"/>
  <outline>
    <contour>
      <point x="75" y="4" type="curve"/>
      <point x="190" y="4" type="line"/>
      <point x="189.925" y="-40.5896"/>
      <point x="209.314" y="-68"/>
      <point x="256" y="-68" type="curve" smooth="yes"/>
      <point x="293.756" y="-68"/>
      <point x="321" y="-46.4363"/>
      <point x="321" y="-7" type="curve" smooth="yes"/>
      <point x="321" y="129.812"/>
      <point x="60" y="33.6473"/>
      <point x="60" y="282" type="curve" smooth="yes"/>
      <point x="60" y="348.657"/>
      <point x="90.3242" y="407.046"/>
      <point x="150" y="439" type="curve"/>
      <point x="99.6943" y="468.308"/>
      <point x="83" y="512.639"/>
      <point x="83" y="569" type="curve" smooth="yes"/>
      <point x="83" y="673.603"/>
      <point x="165.08" y="733"/>
      <point x="264" y="733" type="curve" smooth="yes"/>
      <point x="376.956" y="733"/>
      <point x="444.027" y="672.936"/>
      <point x="444" y="558" type="curve"/>
      <point x="330" y="558" type="line"/>
      <point x="330.077" y="600.863"/>
      <point x="311.283" y="629"/>
      <point x="266" y="629" type="curve" smooth="yes"/>
      <point x="228.571" y="629"/>
      <point x="205" y="605.298"/>
      <point x="205" y="568" type="curve" smooth="yes"/>
      <point x="205" y="437.818"/>
      <point x="463" y="528.383"/>
      <point x="463" y="284" type="curve" smooth="yes"/>
      <point x="463" y="219.834"/>
      <point x="432.581" y="155.666"/>
      <point x="373" y="127" type="curve"/>
      <point x="428.004" y="95.3181"/>
      <point x="442" y="50.7561"/>
      <point x="442" y="-10" type="curve" smooth="yes"/>
      <point x="442" y="-115.665"/>
      <point x="356.213" y="-172"/>
      <point x="258" y="-172" type="curve" smooth="yes"/>
      <point x="144.179" y="-172"/>
      <point x="74.9706" y="-112.804"/>
    </contour>
    <contour>
      <point x="340" y="283" type="curve" smooth="yes"/>
      <point x="340" y="332.496"/>
      <point x="315.648" y="373"/>
      <point x="262" y="373" type="curve" smooth="yes"/>
      <point x="207.033" y="373"/>
      <point x="182" y="334.229"/>
      <point x="182" y="283" type="curve" smooth="yes"/>
      <point x="182" y="230.588"/>
      <point x="205.996" y="193"/>
      <point x="262" y="193" type="curve" smooth="yes"/>
      <point x="315.648" y="193"/>
      <point x="340" y="233.504"/>
    </contour>
  </outline>
</glyph>
<glyph name="copyright" format="2">
  <advance width="857"/>
  <unicode hex="00A9"/>
  <outline>
    <contour>
      <point x="68" y="350" type="curve" smooth="yes"/>
      <point x="68" y="562.411"/>
      <point x="202.099" y="710"/>
      <point x="418" y="710" type="curve" smooth="yes"/>
      <point x="633.795" y="710"/>
      <point x="769" y="562.694"/>
      <point x="769" y="350" type="curve" smooth="yes"/>
      <point x="769" y="137.227"/>
      <point x="633.577" y="-9"/>
      <point x="418" y="-9" type="curve" smooth="yes"/>
      <point x="202.97" y="-9"/>
      <point x="68" y="138.083"/>
    </contour>
    <contour>
      <point x="686" y="350" type="curve" smooth="yes"/>
      <point x="686" y="518.103"/>
      <point x="591.563" y="632"/>
      <point x="418" y="632" type="curve" smooth="yes"/>
      <point x="244.935" y="632"/>
      <point x="151" y="517.329"/>
      <point x="151" y="350" type="curve" smooth="yes"/>
      <point x="151" y="182.369"/>
      <point x="245.23" y="70"/>
      <point x="418" y="70" type="curve" smooth="yes"/>
      <point x="591.23" y="70"/>
      <point x="686" y="181.626"/>
    </contour>
    <contour>
      <point x="264" y="314" type="curve" smooth="yes"/>
      <point x="264" y="386" type="line" smooth="yes"/>
      <point x="264" y="487.946"/>
      <point x="315.332" y="549"/>
      <point x="420" y="549" type="curve" smooth="yes"/>
      <point x="516.245" y="549"/>
      <point x="573" y="501.105"/>
      <point x="573" y="403" type="curve"/>
      <point x="485" y="403" type="line"/>
      <point x="485" y="442.775"/>
      <point x="463.901" y="467"/>
      <point x="423" y="467" type="curve" smooth="yes"/>
      <point x="371.609" y="467"/>
      <point x="355" y="431.471"/>
      <point x="355" y="385" type="curve" smooth="yes"/>
      <point x="355" y="315" type="line" smooth="yes"/>
      <point x="355" y="267.505"/>
      <point x="369.105" y="233"/>
      <point x="423" y="233" type="curve" smooth="yes"/>
      <point x="464.798" y="233"/>
      <point x="485" y="253.743"/>
      <point x="485" y="295" type="curve"/>
      <point x="573" y="295" type="line"/>
      <point x="573" y="290" type="line" smooth="yes"/>
      <point x="573" y="197.617"/>
      <point x="506.9" y="152"/>
      <point x="420" y="152" type="curve" smooth="yes"/>
      <point x="314.563" y="152"/>
      <point x="264" y="211.438"/>
    </contour>
  </outline>
</glyph>
<glyph name="registered" format="2">
  <advance width="506"/>
  <unicode hex="00AE"/>
  <outline>
    <contour>
      <point x="60" y="512" type="curve" smooth="yes"/>
      <point x="60" y="621.013"/>
      <point x="143.107" y="708"/>
      <point x="253" y="708" type="curve" smooth="yes"/>
      <point x="364.093" y="708"/>
      <point x="446" y="622.157"/>
      <point x="446" y="512" type="curve" smooth="yes"/>
      <point x="446" y="401.323"/>
      <point x="364.958" y="315"/>
      <point x="253" y="315" type="curve" smooth="yes"/>
      <point x="142.032" y="315"/>
      <point x="60" y="402.183"/>
    </contour>
    <contour>
      <point x="402" y="512" type="curve" smooth="yes"/>
      <point x="402" y="600.68"/>
      <point x="343.808" y="667"/>
      <point x="253" y="667" type="curve" smooth="yes"/>
      <point x="161.677" y="667"/>
      <point x="103" y="601.469"/>
      <point x="103" y="512" type="curve" smooth="yes"/>
      <point x="103" y="423.411"/>
      <point x="162.186" y="356"/>
      <point x="253" y="356" type="curve" smooth="yes"/>
      <point x="344.724" y="356"/>
      <point x="402" y="422.991"/>
    </contour>
    <contour>
      <point x="174" y="622" type="line"/>
      <point x="264" y="622" type="line" smooth="yes"/>
      <point x="308.79" y="622"/>
      <point x="343" y="602.817"/>
      <point x="343" y="554" type="curve" smooth="yes"/>
      <point x="343" y="525.953"/>
      <point x="330.381" y="505.157"/>
      <point x="305" y="493" type="curve"/>
      <point x="348" y="404" type="line"/>
      <point x="291" y="404" type="line"/>
      <point x="253" y="484" type="line"/>
      <point x="227" y="484" type="line"/>
      <point x="227" y="404" type="line"/>
      <point x="174" y="404" type="line"/>
    </contour>
    <contour>
      <point x="261" y="529" type="line" smooth="yes"/>
      <point x="277.2" y="529"/>
      <point x="290" y="535.051"/>
      <point x="290" y="553" type="curve" smooth="yes"/>
      <point x="290" y="570.949"/>
      <point x="277.2" y="577"/>
      <point x="261" y="577" type="curve" smooth="yes"/>
      <point x="227" y="577" type="line"/>
      <point x="227" y="529" type="line"/>
    </contour>
  </outline>
</glyph>
<glyph name="degree" format="2">
  <advance width="403"/>
  <unicode hex="00B0"/>
  <outline>
    <contour>
      <point x="51" y="567" type="curve" smooth="yes"/>
      <point x="51" y="652.708"/>
      <point x="116.292" y="718"/>
      <point x="202" y="718" type="curve" smooth="yes"/>
      <point x="287.18" y="718"/>
      <point x="352" y="651.871"/>
      <point x="352" y="567" type="curve" smooth="yes"/>
      <point x="352" y="481.005"/>
      <point x="287.851" y="417"/>
      <point x="202" y="417" type="curve" smooth="yes"/>
      <point x="115.575" y="417"/>
      <point x="51" y="480.289"/>
    </contour>
    <contour>
      <point x="272" y="567" type="curve" smooth="yes"/>
      <point x="272" y="607.657"/>
      <point x="243.935" y="641"/>
      <point x="202" y="641" type="curve" smooth="yes"/>
      <point x="158.085" y="641"/>
      <point x="131" y="609.968"/>
      <point x="131" y="567" type="curve" smooth="yes"/>
      <point x="131" y="524.446"/>
      <point x="158.798" y="494"/>
      <point x="202" y="494" type="curve" smooth="yes"/>
      <point x="243.236" y="494"/>
      <point x="272" y="526.74"/>
    </contour>
  </outline>
</glyph>
<glyph name="mu" format="2">
  <advance width="532"/>
  <unicode hex="00B5"/>
  <outline>
    <contour>
      <point x="55" y="532" type="line"/>
      <point x="182" y="532" type="line"/>
      <point x="182" y="201" type="line" smooth="yes"/>
      <point x="182" y="149.15"/>
      <point x="208.686" y="106"/>
      <point x="265" y="106" type="curve" smooth="yes"/>
      <point x="321.262" y="106"/>
      <point x="350" y="148.561"/>
      <point x="350" y="201" type="curve" smooth="yes"/>
      <point x="350" y="532" type="line"/>
      <point x="477" y="532" type="line"/>
      <point x="477" y="0" type="line"/>
      <point x="353" y="0" type="line"/>
      <point x="353" y="48" type="line"/>
      <point x="326.645" y="12.8399"/>
      <point x="291.145" y="-6"/>
      <point x="247" y="-6" type="curve" smooth="yes"/>
      <point x="224.045" y="-6"/>
      <point x="201.204" y="-1.11163"/>
      <point x="181" y="10" type="curve"/>
      <point x="181" y="-160" type="line"/>
      <point x="55" y="-160" type="line"/>
    </contour>
  </outline>
</glyph>
<glyph name="ordmasculine" format="2">
  <advance width="363"/>
  <unicode hex="00BA"/>
  <outline>
    <contour>
      <point x="44" y="572" type="curve" smooth="yes"/>
      <point x="44" y="631" type="line" smooth="yes"/>
      <point x="44" y="720.247"/>
      <point x="93.368" y="766"/>
      <point x="182" y="766" type="curve" smooth="yes"/>
      <point x="271.269" y="766"/>
      <point x="319" y="720.536"/>
      <point x="319" y="631" type="curve" smooth="yes"/>
      <point x="319" y="572" type="line" smooth="yes"/>
      <point x="319" y="483.191"/>
      <point x="270.88" y="436"/>
      <point x="182" y="436" type="curve" smooth="yes"/>
      <point x="93.7689" y="436"/>
      <point x="44" y="483.491"/>
    </contour>
    <contour>
      <point x="227" y="572" type="curve" smooth="yes"/>
      <point x="227" y="630" type="line" smooth="yes"/>
      <point x="227" y="661.401"/>
      <point x="215.238" y="684"/>
      <point x="181" y="684" type="curve" smooth="yes"/>
      <point x="146.762" y="684"/>
      <point x="135" y="661.401"/>
      <point x="135" y="630" type="curve" smooth="yes"/>
      <point x="135" y="572" type="line" smooth="yes"/>
      <point x="135" y="540.599"/>
      <point x="146.762" y="518"/>
      <point x="181" y="518" type="curve" smooth="yes"/>
      <point x="215.238" y="518"/>
      <point x="227" y="540.599"/>
    </contour>
  </outline>
</glyph>
<glyph name="questiondown" format="2">
  <advance width="461"/>
  <unicode hex="00BF"/>
  <outline>
    <contour>
      <point x="171" y="532" type="line"/>
      <point x="304" y="532" type="line"/>
      <point x="304" y="399" type="line"/>
      <point x="171" y="399" type="line"/>
    </contour>
    <contour>
      <point x="35" y="9" type="curve" smooth="yes"/>
      <point x="35" y="99.414"/>
      <point x="80.503" y="140.729"/>
      <point x="137" y="206" type="curve" smooth="yes"/>
      <point x="148.828" y="219.664"/>
      <point x="161.162" y="234.593"/>
      <point x="167" y="252" type="curve" smooth="yes"/>
      <point x="175.523" y="277.411"/>
      <point x="174" y="304.618"/>
      <point x="174" y="331" type="curve"/>
      <point x="301" y="331" type="line"/>
      <point x="301" y="292" type="line" smooth="yes"/>
      <point x="301" y="268.685"/>
      <point x="299.772" y="244.202"/>
      <point x="292" y="222" type="curve" smooth="yes"/>
      <point x="265.492" y="146.275"/>
      <point x="166" y="101.704"/>
      <point x="166" y="16" type="curve" smooth="yes"/>
      <point x="166" y="-31.0455"/>
      <point x="192.676" y="-55"/>
      <point x="239" y="-55" type="curve" smooth="yes"/>
      <point x="293.013" y="-55"/>
      <point x="308.218" y="-21.7946"/>
      <point x="310" y="27" type="curve"/>
      <point x="434" y="27" type="line"/>
      <point x="432.013" y="-101.09"/>
      <point x="362.127" y="-170"/>
      <point x="234" y="-170" type="curve" smooth="yes"/>
      <point x="125.897" y="-170"/>
      <point x="35" y="-105.789"/>
    </contour>
  </outline>
</glyph>
<glyph name="Ccedilla" format="2">
  <advance width="614"/>
  <unicode hex="00C7"/>
  <outline>
    <contour>
      <point x="429" y="475" type="line"/>
      <point x="429" y="553.084"/>
      <point x="388.663" y="599"/>
      <point x="309" y="599" type="curve" smooth="yes"/>
      <point x="203.905" y="599"/>
      <point x="186" y="515.41"/>
      <point x="186" y="428" type="curve" smooth="yes"/>
      <point x="186" y="275" type="line" smooth="yes"/>
      <point x="186" y="187.903"/>
      <point x="209.033" y="112"/>
      <point x="311" y="112" type="curve" smooth="yes"/>
      <point x="392.346" y="112"/>
      <point x="429" y="155.103"/>
      <point x="429" y="234" type="curve"/>
      <point x="561" y="234" type="line"/>
      <point x="561" y="227" type="line" smooth="yes"/>
      <point x="561" y="105.383"/>
      <point x="499.578" y="21.0049"/>
      <point x="378" y="-2" type="curve"/>
      <point x="329" y="-160" type="line"/>
      <point x="212" y="-160" type="line"/>
      <point x="274" y="-7" type="line"/>
      <point x="109.21" y="7.285"/>
      <point x="51" y="119"/>
      <point x="51" y="273" type="curve" smooth="yes"/>
      <point x="51" y="435" type="line" smooth="yes"/>
      <point x="51" y="610.445"/>
      <point x="126.227" y="717"/>
      <point x="310" y="717" type="curve" smooth="yes"/>
      <point x="465.838" y="717"/>
      <point x="563" y="633.663"/>
      <point x="563" y="475" type="curve"/>
    </contour>
  </outline>
</glyph>
<glyph name="Oslash" format="2">
  <advance width="614"/>
  <unicode hex="00D8"/>
  <anchor x="307" y="707" name="top"/>
  <outline>
    <contour>
      <point x="507" y="636" type="line"/>
      <point x="552.356" y="581.026"/>
      <point x="563" y="503.974"/>
      <point x="563" y="435" type="curve" smooth="yes"/>
      <point x="563" y="273" type="line" smooth="yes"/>
      <point x="563" y="100.066"/>
      <point x="486.816" y="-8"/>
      <point x="304" y="-8" type="curve" smooth="yes"/>
      <point x="251.948" y="-8"/>
      <point x="198.746" y="1.04091"/>
      <point x="154" y="29" type="curve"/>
      <point x="125" y="-20" type="line"/>
      <point x="51" y="-20" type="line"/>
      <point x="105" y="73" type="line"/>
      <point x="61.3862" y="128.771"/>
      <point x="51" y="204.249"/>
      <point x="51" y="273" type="curve" smooth="yes"/>
      <point x="51" y="435" type="line" smooth="yes"/>
      <point x="51" y="608.97"/>
      <point x="125.025" y="717"/>
      <point x="308" y="717" type="curve" smooth="yes"/>
      <point x="360.635" y="717"/>
      <point x="414.797" y="707.23"/>
      <point x="460" y="679" type="curve"/>
      <point x="490" y="732" type="line"/>
      <point x="563" y="732" type="line"/>
    </contour>
    <contour>
      <point x="190" y="218" type="curve"/>
      <point x="393" y="566" type="line"/>
      <point x="371.519" y="590.891"/>
      <point x="339.798" y="599"/>
      <point x="308" y="599" type="curve" smooth="yes"/>
      <point x="201.109" y="599"/>
      <point x="186" y="516.546"/>
      <point x="186" y="428" type="curve" smooth="yes"/>
      <point x="186" y="275" type="line" smooth="yes"/>
      <point x="186" y="256.063"/>
      <point x="186.06" y="236.612"/>
    </contour>
    <contour>
      <point x="424" y="494" type="curve"/>
      <point x="220" y="143" type="line"/>
      <point x="242.622" y="119.252"/>
      <point x="276.331" y="112"/>
      <point x="308" y="112" type="curve" smooth="yes"/>
      <point x="408.354" y="112"/>
      <point x="429" y="190.731"/>
      <point x="429" y="275" type="curve" smooth="yes"/>
      <point x="429" y="428" type="line" smooth="yes"/>
      <point x="429" y="450.087"/>
      <point x="426.989" y="472.132"/>
    </contour>
  </outline>
</glyph>
<glyph name="germandbls" format="2">
  <advance width="536"/>
  <unicode hex="00DF"/>
  <outline>
    <contour>
      <point x="260" y="101.799" type="line"/>
      <point x="286.222" y="101.799" type="line" smooth="yes"/>
      <point x="343.805" y="101.799"/>
      <point x="365" y="137.905"/>
      <point x="365" y="236" type="curve" smooth="yes"/>
      <point x="365" y="343.568"/>
      <point x="346.731" y="370.867"/>
      <point x="274.744" y="370.867" type="curve" smooth="yes"/>
      <point x="260" y="370.867" type="line"/>
      <point x="260" y="476.01" type="line"/>
      <point x="274.753" y="476.01" type="line" smooth="yes"/>
      <point x="335.201" y="476.01"/>
      <point x="355" y="492.291"/>
      <point x="355" y="542" type="curve" smooth="yes"/>
      <point x="355" y="595.88"/>
      <point x="317.883" y="608"/>
      <point x="271" y="608" type="curve" smooth="yes"/>
      <point x="211.648" y="608"/>
      <point x="182" y="581.392"/>
      <point x="182" y="521" type="curve" smooth="yes"/>
      <point x="182" y="0" type="line"/>
      <point x="55" y="0" type="line"/>
      <point x="55" y="510" type="line" smooth="yes"/>
      <point x="55" y="653.914"/>
      <point x="129.139" y="717"/>
      <point x="270" y="717" type="curve" smooth="yes"/>
      <point x="380.763" y="717"/>
      <point x="481" y="673.792"/>
      <point x="481" y="548" type="curve" smooth="yes"/>
      <point x="481" y="497.417"/>
      <point x="465.326" y="457.612"/>
      <point x="423" y="428" type="curve"/>
      <point x="458.753" y="398.185"/>
      <point x="490" y="335.624"/>
      <point x="490" y="233" type="curve" smooth="yes"/>
      <point x="490" y="35.8391"/>
      <point x="453.718" y="-3.96336"/>
      <point x="273.994" y="-3.96336" type="curve" smooth="yes"/>
      <point x="260" y="-3.96336" type="line"/>
    </contour>
  </outline>
</glyph>
<glyph name="ccedilla" format="2">
  <advance width="517"/>
  <unicode hex="00E7"/>
  <outline>
    <contour>
      <point x="350" y="339" type="line"/>
      <point x="350" y="394.087"/>
      <point x="320.213" y="426"/>
      <point x="264" y="426" type="curve" smooth="yes"/>
      <point x="194.499" y="426"/>
      <point x="172" y="376.479"/>
      <point x="172" y="314" type="curve" smooth="yes"/>
      <point x="172" y="218" type="line" smooth="yes"/>
      <point x="172" y="154.721"/>
      <point x="192.447" y="106"/>
      <point x="264" y="106" type="curve" smooth="yes"/>
      <point x="319.18" y="106"/>
      <point x="350" y="134.833"/>
      <point x="350" y="190" type="curve"/>
      <point x="471" y="190" type="line"/>
      <point x="471" y="183" type="line" smooth="yes"/>
      <point x="471" y="89.3836"/>
      <point x="420.416" y="23.3243"/>
      <point x="329" y="1" type="curve"/>
      <point x="279" y="-160" type="line"/>
      <point x="162" y="-160" type="line"/>
      <point x="225" y="-4" type="line"/>
      <point x="98.2101" y="9.54423"/>
      <point x="46" y="96.6853"/>
      <point x="46" y="217" type="curve" smooth="yes"/>
      <point x="46" y="316" type="line" smooth="yes"/>
      <point x="46" y="456.538"/>
      <point x="118.297" y="539"/>
      <point x="262" y="539" type="curve" smooth="yes"/>
      <point x="392.755" y="539"/>
      <point x="471" y="471.958"/>
      <point x="471" y="339" type="curve"/>
    </contour>
  </outline>
</glyph>
<glyph name="Hbar" format="2">
  <advance width="623"/>
  <unicode hex="0126"/>
  <outline>
    <component base="H"/>
    <contour>
      <point x="10" y="633" type="line"/>
      <point x="612" y="633" type="line"/>
      <point x="612" y="515" type="line"/>
      <point x="10" y="515" type="line"/>
    </contour>
  </outline>
</glyph>
<glyph name="iogonek" format="2">
  <advance width="246"/>
  <unicode hex="012F"/>
  <outline>
    <component base="i"/>
    <contour>
      <point x="92" y="13" type="line"/>
      <point x="184" y="13" type="line"/>
      <point x="184" y="1" type="line"/>
      <point x="92" y="-49" type="line"/>
      <point x="118.026" y="-76.19"/>
      <point x="149.52" y="-72.2802"/>
      <point x="184" y="-73" type="curve"/>
      <point x="184" y="-162" type="line"/>
      <point x="96.6633" y="-160.635"/>
      <point x="20.8643" y="-127.721"/>
      <point x="-10" y="-41" type="curve"/>
    </contour>
  </outline>
</glyph>
<glyph name="ij" format="2">
  <advance width="495"/>
  <unicode hex="0133"/>
  <outline>
    <contour>
      <point x="55" y="707" type="line"/>
      <point x="182" y="707" type="line"/>
      <point x="182" y="605" type="line"/>
      <point x="55" y="605" type="line"/>
    </contour>
    <contour>
      <point x="314" y="707" type="line"/>
      <point x="440" y="707" type="line"/>
      <point x="440" y="605" type="line"/>
      <point x="314" y="605" type="line"/>
    </contour>
    <contour>
      <point x="62" y="-13" type="curve"/>
      <point x="184" y="-13" type="line"/>
      <point x="189.379" y="-41.9199"/>
      <point x="219.755" y="-68"/>
      <point x="249" y="-68" type="curve" smooth="yes"/>
      <point x="336.212" y="-68"/>
      <point x="316" y="33.2046"/>
      <point x="316" y="96" type="curve"/>
      <point x="304.039" y="48.8559"/>
      <point x="280.194" y="50.9983"/>
      <point x="237.57" y="50.9983" type="curve" smooth="yes"/>
      <point x="186.202" y="50.9983"/>
      <point x="141.5" y="55.7283"/>
      <point x="105" y="96" type="curve" smooth="yes"/>
      <point x="65.1128" y="140.009"/>
      <point x="55" y="203.709"/>
      <point x="55" y="261" type="curve" smooth="yes"/>
      <point x="55" y="532" type="line"/>
      <point x="182" y="532" type="line"/>
      <point x="182" y="265" type="line" smooth="yes"/>
      <point x="182" y="209.093"/>
      <point x="187.84" y="164"/>
      <point x="254" y="164" type="curve" smooth="yes"/>
      <point x="317.03" y="164"/>
      <point x="314" y="217.063"/>
      <point x="314" y="265" type="curve" smooth="yes"/>
      <point x="314" y="532" type="line"/>
      <point x="440" y="532" type="line"/>
      <point x="440" y="39" type="line" smooth="yes"/>
      <point x="440" y="-18.5113"/>
      <point x="424.391" y="-70.7458"/>
      <point x="383" y="-112" type="curve" smooth="yes"/>
      <point x="341.155" y="-153.706"/>
      <point x="326.54" y="-168"/>
      <point x="264" y="-168" type="curve" smooth="yes"/>
      <point x="162.5" y="-168"/>
      <point x="69.0686" y="-126.672"/>
    </contour>
  </outline>
</glyph>
<glyph name="Eng" format="2">
  <advance width="649"/>
  <unicode hex="014A"/>
  <outline>
    <contour>
      <point x="60" y="707" type="line"/>
      <point x="195" y="707" type="line"/>
      <point x="455" y="264" type="line"/>
      <point x="455" y="707" type="line"/>
      <point x="589" y="707" type="line"/>
      <point x="589" y="0" type="line" smooth="yes"/>
      <point x="589" y="-107.599"/>
      <point x="539.43" y="-173"/>
      <point x="427" y="-173" type="curve" smooth="yes"/>
      <point x="369" y="-173" type="line"/>
      <point x="369" y="-63" type="line"/>
      <point x="427.249" y="-63"/>
      <point x="455.106" y="-68.3558"/>
      <point x="455" y="0" type="curve"/>
      <point x="195" y="441" type="line"/>
      <point x="195" y="0" type="line"/>
      <point x="60" y="0" type="line"/>
    </contour>
  </outline>
</glyph>
<glyph name="OE" format="2">
  <advance width="891"/>
  <unicode hex="0152"/>
  <outline>
    <contour>
      <point x="51" y="273" type="curve" smooth="yes"/>
      <point x="51" y="435" type="line" smooth="yes"/>
      <point x="51" y="596.433"/>
      <point x="119.665" y="717"/>
      <point x="296" y="717" type="curve" smooth="yes"/>
      <point x="347" y="717"/>
      <point x="396.221" y="704.191"/>
      <point x="439" y="676" type="curve"/>
      <point x="439" y="707" type="line"/>
      <point x="856" y="707" type="line"/>
      <point x="856" y="590" type="line"/>
      <point x="563" y="590" type="line"/>
      <point x="563" y="415" type="line"/>
      <point x="810" y="415" type="line"/>
      <point x="810" y="298" type="line"/>
      <point x="563" y="298" type="line"/>
      <point x="563" y="117" type="line"/>
      <point x="856" y="117" type="line"/>
      <point x="856" y="0" type="line"/>
      <point x="439" y="0" type="line"/>
      <point x="439" y="32" type="line"/>
      <point x="396.304" y="3.88057"/>
      <point x="345.733" y="-8"/>
      <point x="295" y="-8" type="curve" smooth="yes"/>
      <point x="117.408" y="-8"/>
      <point x="51" y="110.36"/>
    </contour>
    <contour>
      <point x="186" y="275" type="line" smooth="yes"/>
      <point x="186" y="186.808"/>
      <point x="204.427" y="112"/>
      <point x="308" y="112" type="curve" smooth="yes"/>
      <point x="408.183" y="112"/>
      <point x="429" y="190.467"/>
      <point x="429" y="275" type="curve" smooth="yes"/>
      <point x="429" y="428" type="line" smooth="yes"/>
      <point x="429" y="513.359"/>
      <point x="411.658" y="599"/>
      <point x="308" y="599" type="curve" smooth="yes"/>
      <point x="201.119" y="599"/>
      <point x="186" y="516.568"/>
      <point x="186" y="428" type="curve" smooth="yes"/>
    </contour>
  </outline>
</glyph>
<glyph name="oe" format="2">
  <advance width="832"/>
  <unicode hex="0153"/>
  <outline>
    <contour>
      <point x="476" y="214" type="line" smooth="yes"/>
      <point x="476" y="143.533"/>
      <point x="504.215" y="103"/>
      <point x="578" y="103" type="curve" smooth="yes"/>
      <point x="611.372" y="103"/>
      <point x="668.288" y="123.922"/>
      <point x="662" y="167" type="curve"/>
      <point x="782" y="167" type="line"/>
      <point x="782" y="162" type="line" smooth="yes"/>
      <point x="782" y="40.2212"/>
      <point x="678.899" y="-6"/>
      <point x="572" y="-6" type="curve" smooth="yes"/>
      <point x="515.704" y="-6"/>
      <point x="459.395" y="6.9422"/>
      <point x="417" y="46" type="curve"/>
      <point x="375.308" y="6.56215"/>
      <point x="317.839" y="-6"/>
      <point x="262" y="-6" type="curve" smooth="yes"/>
      <point x="116.769" y="-6"/>
      <point x="46" y="75.3956"/>
      <point x="46" y="217" type="curve" smooth="yes"/>
      <point x="46" y="316" type="line" smooth="yes"/>
      <point x="46" y="456.247"/>
      <point x="117.931" y="539"/>
      <point x="262" y="539" type="curve" smooth="yes"/>
      <point x="318.078" y="539"/>
      <point x="375.25" y="525.494"/>
      <point x="417" y="486" type="curve"/>
      <point x="458.573" y="524.297"/>
      <point x="513.479" y="539"/>
      <point x="569" y="539" type="curve" smooth="yes"/>
      <point x="718.747" y="539"/>
      <point x="786" y="439.373"/>
      <point x="786" y="299" type="curve" smooth="yes"/>
      <point x="786" y="228" type="line"/>
      <point x="476" y="228" type="line"/>
    </contour>
    <contour>
      <point x="476" y="315" type="curve"/>
      <point x="660" y="315" type="line"/>
      <point x="660" y="329" type="line" smooth="yes"/>
      <point x="660" y="391.132"/>
      <point x="634.726" y="430"/>
      <point x="569" y="430" type="curve" smooth="yes"/>
      <point x="494.587" y="430"/>
      <point x="476" y="380.236"/>
    </contour>
    <contour>
      <point x="350" y="314" type="line" smooth="yes"/>
      <point x="350" y="374.224"/>
      <point x="330.606" y="426"/>
      <point x="262" y="426" type="curve" smooth="yes"/>
      <point x="192.929" y="426"/>
      <point x="172" y="375.36"/>
      <point x="172" y="314" type="curve" smooth="yes"/>
      <point x="172" y="218" type="line" smooth="yes"/>
      <point x="172" y="156.64"/>
      <point x="192.929" y="106"/>
      <point x="262" y="106" type="curve" smooth="yes"/>
      <point x="330.606" y="106"/>
      <point x="350" y="157.776"/>
      <point x="350" y="218" type="curve" smooth="yes"/>
    </contour>
  </outline>
</glyph>
<glyph name="Scaron" format="2">
  <advance width="561"/>
  <unicode hex="0160"/>
  <anchor x="279" y="707" name="top"/>
  <outline>
    <contour>
      <point x="26" y="215" type="curve"/>
      <point x="153" y="215" type="line"/>
      <point x="163.036" y="135.815"/>
      <point x="202.145" y="109"/>
      <point x="280" y="109" type="curve" smooth="yes"/>
      <point x="343.907" y="109"/>
      <point x="393" y="131.042"/>
      <point x="393" y="202" type="curve" smooth="yes"/>
      <point x="393" y="378.977"/>
      <point x="41" y="219.981"/>
      <point x="41" y="504" type="curve" smooth="yes"/>
      <point x="41" y="644.503"/>
      <point x="147.008" y="717"/>
      <point x="279" y="717" type="curve" smooth="yes"/>
      <point x="414.666" y="717"/>
      <point x="502.782" y="643.524"/>
      <point x="513" y="506" type="curve"/>
      <point x="384" y="506" type="line"/>
      <point x="380.035" y="575.323"/>
      <point x="343.682" y="604"/>
      <point x="276" y="604" type="curve" smooth="yes"/>
      <point x="217.586" y="604"/>
      <point x="171" y="578.136"/>
      <point x="171" y="514" type="curve" smooth="yes"/>
      <point x="171" y="350.986"/>
      <point x="525" y="498.182"/>
      <point x="525" y="213" type="curve" smooth="yes"/>
      <point x="525" y="59.2889"/>
      <point x="414.704" y="-6"/>
      <point x="273" y="-6" type="curve" smooth="yes"/>
      <point x="127.17" y="-6"/>
      <point x="36.303" y="65.9193"/>
    </contour>
    <contour>
      <point x="114" y="912" type="line"/>
      <point x="214" y="912" type="line"/>
      <point x="279" y="833" type="line"/>
      <point x="343" y="912" type="line"/>
      <point x="442" y="912" type="line"/>
      <point x="325" y="758" type="line"/>
      <point x="231" y="758" type="line"/>
    </contour>
  </outline>
</glyph>
<glyph name="Uogonek" format="2">
  <advance width="628"/>
  <unicode hex="0172"/>
  <outline>
    <component base="U"/>
    <contour>
      <point x="243" y="-86" type="curve"/>
      <point x="355" y="33" type="line"/>
      <point x="446.901" y="33" type="line"/>
      <point x="345" y="-94" type="line"/>
      <point x="362.121" y="-110.905"/>
      <point x="405.076" y="-118.211"/>
      <point x="437" y="-118" type="curve"/>
      <point x="437" y="-207" type="line"/>
      <point x="351.512" y="-207"/>
      <point x="273.142" y="-171.217"/>
    </contour>
  </outline>
</glyph>
<glyph name="Oogonek" format="2">
  <advance width="614"/>
  <unicode hex="01EA"/>
  <outline>
    <component base="O"/>
    <contour>
      <point x="240" y="13" type="line"/>
      <point x="332.388" y="13" type="line"/>
      <point x="230" y="-114" type="line"/>
      <point x="250.26" y="-133.3"/>
      <point x="288.928" y="-137.858"/>
      <point x="322" y="-138" type="curve"/>
      <point x="322" y="-227" type="line"/>
      <point x="235.436" y="-227"/>
      <point x="158.646" y="-192.331"/>
      <point x="128" y="-106" type="curve"/>
    </contour>
  </outline>
</glyph>
<glyph name="oogonek" format="2">
  <advance width="522"/>
  <unicode hex="01EB"/>
  <outline>
    <component base="o"/>
    <contour>
      <point x="305" y="35" type="line"/>
      <point x="397.303" y="35" type="line"/>
      <point x="295" y="-92" type="line"/>
      <point x="319.011" y="-116.656"/>
      <point x="355.076" y="-116.211"/>
      <point x="387" y="-116" type="curve"/>
      <point x="387" y="-205" type="line"/>
      <point x="301.512" y="-203.901"/>
      <point x="223.142" y="-169.217"/>
      <point x="193" y="-84" type="curve"/>
    </contour>
  </outline>
</glyph>
<glyph name="circumflex" format="2">
  <advance width="512"/>
  <unicode hex="02C6"/>
  <outline>
    <contour>
      <point x="209" y="745" type="line"/>
      <point x="302" y="745" type="line"/>
      <point x="420" y="591" type="line"/>
      <point x="321" y="591" type="line"/>
      <point x="256" y="671" type="line"/>
      <point x="191" y="591" type="line"/>
      <point x="91" y="591" type="line"/>
    </contour>
  </outline>
</glyph>
<glyph name="breve" format="2">
  <advance width="512"/>
  <unicode hex="02D8"/>
  <outline>
    <contour>
      <point x="255" y="568" type="curve" smooth="yes"/>
      <point x="140.921" y="568"/>
      <point x="102.519" y="638.018"/>
      <point x="103" y="743" type="curve"/>
      <point x="182" y="743" type="line"/>
      <point x="181.971" y="738.147" type="line" smooth="yes"/>
      <point x="181.971" y="686.094"/>
      <point x="192.87" y="640"/>
      <point x="255" y="640" type="curve" smooth="yes"/>
      <point x="319.633" y="640"/>
      <point x="328.638" y="690"/>
      <point x="328" y="743" type="curve"/>
      <point x="407" y="743" type="line"/>
      <point x="407" y="729" type="line" smooth="yes"/>
      <point x="407" y="630.187"/>
      <point x="357.272" y="568"/>
    </contour>
  </outline>
</glyph>
<glyph name="ogonek" format="2">
  <advance width="512"/>
  <unicode hex="02DB"/>
  <outline>
    <contour>
      <point x="345" y="13" type="line"/>
      <point x="427" y="13" type="line"/>
      <point x="427" y="1" type="line"/>
      <point x="335" y="-114" type="line"/>
      <point x="359.011" y="-138.656"/>
      <point x="395.076" y="-138.211"/>
      <point x="427" y="-138" type="curve"/>
      <point x="427" y="-227" type="line"/>
      <point x="341.512" y="-225.901"/>
      <point x="263.142" y="-191.217"/>
      <point x="233" y="-106" type="curve"/>
    </contour>
  </outline>
</glyph>
<glyph name="tilde" format="2">
  <advance width="512"/>
  <unicode hex="02DC"/>
  <outline>
    <contour>
      <point x="111" y="688" type="line"/>
      <point x="136.216" y="713.225"/>
      <point x="156.349" y="732"/>
      <point x="194" y="732" type="curve" smooth="yes"/>
      <point x="250.237" y="732"/>
      <point x="278.141" y="693"/>
      <point x="323" y="693" type="curve" smooth="yes"/>
      <point x="357.377" y="693"/>
      <point x="375.948" y="712.611"/>
      <point x="400" y="734" type="curve"/>
      <point x="400" y="641" type="line"/>
      <point x="374.784" y="615.775"/>
      <point x="354.651" y="597"/>
      <point x="317" y="597" type="curve" smooth="yes"/>
      <point x="262.849" y="597"/>
      <point x="233.561" y="636"/>
      <point x="189" y="636" type="curve" smooth="yes"/>
      <point x="156.35" y="636"/>
      <point x="134.155" y="616.585"/>
      <point x="111" y="596" type="curve"/>
    </contour>
  </outline>
</glyph>
<glyph name="tildecomb" format="2">
  <unicode hex="0303"/>
  <anchor x="0" y="532" name="_top"/>
  <outline>
    <contour>
      <point x="-145" y="688" type="line"/>
      <point x="-122.285" y="711.334"/>
      <point x="-96.1861" y="732"/>
      <point x="-62" y="732" type="curve" smooth="yes"/>
      <point x="-12.7014" y="732"/>
      <point x="22.7772" y="693"/>
      <point x="67" y="693" type="curve" smooth="yes"/>
      <point x="98.0046" y="693"/>
      <point x="122.478" y="714.15"/>
      <point x="144" y="734" type="curve"/>
      <point x="144" y="641" type="line"/>
      <point x="121.285" y="617.666"/>
      <point x="95.1861" y="597"/>
      <point x="61" y="597" type="curve" smooth="yes"/>
      <point x="12.8592" y="597"/>
      <point x="-22.4209" y="636"/>
      <point x="-67" y="636" type="curve" smooth="yes"/>
      <point x="-97.7383" y="636"/>
      <point x="-123.425" y="615.733"/>
      <point x="-145" y="596" type="curve"/>
    </contour>
  </outline>
</glyph>
<glyph name="brevecmb" format="2">
  <unicode hex="0306"/>
  <outline>
    <contour>
      <point x="0" y="568" type="curve" smooth="yes"/>
      <point x="-114.527" y="568"/>
      <point x="-152.28" y="637.738"/>
      <point x="-152" y="743" type="curve"/>
      <point x="-73" y="743" type="line"/>
      <point x="-73.6093" y="689.714"/>
      <point x="-64.9201" y="640"/>
      <point x="0" y="640" type="curve" smooth="yes"/>
      <point x="64.9201" y="640"/>
      <point x="73.6093" y="689.714"/>
      <point x="73" y="743" type="curve"/>
      <point x="152" y="743" type="line"/>
      <point x="152" y="729" type="line" smooth="yes"/>
      <point x="152" y="629.695"/>
      <point x="102.791" y="568"/>
    </contour>
  </outline>
</glyph>
<glyph name="ogonekcmb" format="2">
  <unicode hex="0328"/>
  <outline>
    <contour>
      <point x="0" y="13" type="line"/>
      <point x="82" y="13" type="line"/>
      <point x="82" y="1" type="line"/>
      <point x="-10" y="-114" type="line"/>
      <point x="10.2599" y="-133.3"/>
      <point x="48.9285" y="-137.858"/>
      <point x="82" y="-138" type="curve"/>
      <point x="82" y="-227" type="line"/>
      <point x="-4.56416" y="-227"/>
      <point x="-81.3538" y="-192.331"/>
      <point x="-112" y="-106" type="curve"/>
    </contour>
  </outline>
</glyph>
<glyph name="Dzhecyr" format="2">
  <advance width="608"/>
  <unicode hex="040F"/>
  <outline>
    <contour>
      <point x="61.412" y="-0.375681" type="line"/>
      <point x="61.412" y="116.621" type="line"/>
      <point x="547.997" y="116.621" type="line"/>
      <point x="547.997" y="-0.375681" type="line"/>
    </contour>
    <contour>
      <point x="237.229" y="-169.821" type="line"/>
      <point x="237.229" y="117.268" type="line"/>
      <point x="371.229" y="117.27" type="line"/>
      <point x="371.229" y="-169.821" type="line"/>
    </contour>
    <contour>
      <point x="414" y="-0.000761457" type="line"/>
      <point x="414" y="707" type="line"/>
      <point x="548" y="707" type="line"/>
      <point x="548" y="-0.000761457" type="line"/>
    </contour>
    <contour>
      <point x="60.836" y="-0.000761457" type="line"/>
      <point x="60.836" y="707" type="line"/>
      <point x="194.836" y="707" type="line"/>
      <point x="194.836" y="-0.000761457" type="line"/>
    </contour>
  </outline>
  <guideline angle="90" x="304" y="0"/>
  <guideline angle="90" x="237" y="0"/>
  <guideline angle="90" x="371" y="0"/>
</glyph>
<glyph name="Becyr" format="2">
  <advance width="630"/>
  <unicode hex="0411"/>
  <outline>
    <contour>
      <point x="170" y="0" type="line"/>
      <point x="170" y="117" type="line"/>
      <point x="326" y="117" type="line" smooth="yes"/>
      <point x="385" y="117"/>
      <point x="422" y="157"/>
      <point x="422" y="221" type="curve" smooth="yes"/>
      <point x="422" y="283"/>
      <point x="386" y="321"/>
      <point x="326" y="321" type="curve" smooth="yes"/>
      <point x="170" y="321" type="line"/>
      <point x="170" y="438" type="line"/>
      <point x="339" y="438" type="line" smooth="yes"/>
      <point x="476" y="438"/>
      <point x="556" y="360"/>
      <point x="556" y="228" type="curve" smooth="yes"/>
      <point x="556" y="91"/>
      <point x="469" y="0"/>
      <point x="339" y="0" type="curve" smooth="yes"/>
    </contour>
    <contour>
      <point x="180" y="590" type="line"/>
      <point x="180" y="707" type="line"/>
      <point x="512" y="707" type="line"/>
      <point x="512" y="590" type="line"/>
    </contour>
    <contour>
      <point x="60" y="0" type="line"/>
      <point x="60" y="707" type="line"/>
      <point x="194" y="707" type="line"/>
      <point x="194" y="0" type="line"/>
    </contour>
  </outline>
</glyph>
<glyph name="Elcyr" format="2">
  <advance width="608"/>
  <unicode hex="041B"/>
  <outline>
    <contour>
      <point x="414" y="0" type="line"/>
      <point x="414" y="707" type="line"/>
      <point x="548" y="707" type="line"/>
      <point x="548" y="0" type="line"/>
    </contour>
    <contour>
      <point x="165" y="590" type="line"/>
      <point x="165" y="707" type="line"/>
      <point x="429" y="707" type="line"/>
      <point x="429" y="590" type="line"/>
    </contour>
    <contour>
      <point x="10.9799" y="116.808" type="line"/>
      <point x="49.1687" y="116.92"/>
      <point x="63.0503" y="150.576"/>
      <point x="70.8467" y="261.953" type="curve" smooth="yes"/>
      <point x="102" y="707" type="line"/>
      <point x="236" y="707" type="line"/>
      <point x="202.853" y="227.468" type="line" smooth="yes"/>
      <point x="191.763" y="67.0331"/>
      <point x="130.5" y="-8"/>
      <point x="10.6" y="-8" type="curve"/>
    </contour>
  </outline>
  <guideline angle="266.046" x="236" y="707"/>
  <guideline angle="85.9958" x="88" y="507"/>
</glyph>
<glyph name="Ereversedcyr" format="2">
  <advance width="613"/>
  <unicode hex="042D"/>
  <outline>
    <contour>
      <point x="561.004" y="273" type="curve" smooth="yes"/>
      <point x="561.004" y="435" type="line" smooth="yes"/>
      <point x="561.004" y="609.164"/>
      <point x="485.418" y="717"/>
      <point x="302.004" y="717" type="curve" smooth="yes"/>
      <point x="148.071" y="717"/>
      <point x="48.2789" y="633.519"/>
      <point x="49.0039" y="475" type="curve"/>
      <point x="183.004" y="475" type="line"/>
      <point x="183.004" y="551.982"/>
      <point x="225.576" y="599"/>
      <point x="303.004" y="599" type="curve" smooth="yes"/>
      <point x="407.564" y="599"/>
      <point x="426.004" y="514.253"/>
      <point x="426.004" y="428" type="curve" smooth="yes"/>
      <point x="426.004" y="275" type="line" smooth="yes"/>
      <point x="426.004" y="188.633"/>
      <point x="402.08" y="112"/>
      <point x="301.004" y="112" type="curve" smooth="yes"/>
      <point x="222.212" y="112"/>
      <point x="183.004" y="155.868"/>
      <point x="183.004" y="234" type="curve"/>
      <point x="51.0039" y="234" type="line"/>
      <point x="51.0039" y="227" type="line" smooth="yes"/>
      <point x="51.0039" y="69.4617"/>
      <point x="153.211" y="-8"/>
      <point x="304.004" y="-8" type="curve" smooth="yes"/>
      <point x="486.528" y="-8"/>
      <point x="561.004" y="100.118"/>
    </contour>
    <contour>
      <point x="462.004" y="415.5" type="line"/>
      <point x="221.777" y="415.5" type="line"/>
      <point x="221.777" y="298.5" type="line"/>
      <point x="462.004" y="298.5" type="line"/>
    </contour>
  </outline>
</glyph>
<glyph name="becyr" format="2">
  <advance width="527"/>
  <unicode hex="0431"/>
  <anchor x="268" y="707" name="top"/>
  <outline>
    <contour>
      <point x="55" y="243.995" type="curve" smooth="yes"/>
      <point x="55" y="447.277" type="line" smooth="yes"/>
      <point x="55" y="523.59"/>
      <point x="86.2518" y="604.882"/>
      <point x="168.912" y="645.728" type="curve" smooth="yes"/>
      <point x="236.845" y="679.298"/>
      <point x="354" y="680.272"/>
      <point x="408.595" y="707" type="curve"/>
      <point x="408.595" y="567.268" type="line"/>
      <point x="339.672" y="547.457"/>
      <point x="271.908" y="556.864"/>
      <point x="236.358" y="539.987" type="curve" smooth="yes"/>
      <point x="197.576" y="521.576"/>
      <point x="182" y="491.285"/>
      <point x="182" y="457.953" type="curve" smooth="yes"/>
      <point x="182" y="438" type="line"/>
      <point x="210.563" y="477.58"/>
      <point x="252.169" y="499"/>
      <point x="301" y="499" type="curve" smooth="yes"/>
      <point x="431.476" y="499"/>
      <point x="481" y="395.227"/>
      <point x="481" y="279" type="curve" smooth="yes"/>
      <point x="481" y="214" type="line" smooth="yes"/>
      <point x="481" y="101.356"/>
      <point x="395.906" y="-6"/>
      <point x="268" y="-6" type="curve" smooth="yes"/>
      <point x="109.769" y="-6"/>
      <point x="55" y="85.7667"/>
    </contour>
    <contour>
      <point x="354" y="218" type="curve" smooth="yes"/>
      <point x="354" y="274" type="line" smooth="yes"/>
      <point x="354" y="331.537"/>
      <point x="336.538" y="386"/>
      <point x="269" y="386" type="curve" smooth="yes"/>
      <point x="204.387" y="386"/>
      <point x="181" y="330.371"/>
      <point x="181" y="274" type="curve" smooth="yes"/>
      <point x="181" y="218" type="line" smooth="yes"/>
      <point x="181" y="158.685"/>
      <point x="205.096" y="106"/>
      <point x="272" y="106" type="curve" smooth="yes"/>
      <point x="338.551" y="106"/>
      <point x="354" y="162.342"/>
    </contour>
  </outline>
  <guideline angle="90" name="vertical" x="268" y="0"/>
  <guideline angle="0" name="horizontal" x="0" y="707"/>
</glyph>
<glyph name="zhecyr" format="2">
  <advance width="826"/>
  <unicode hex="0436"/>
  <anchor x="413" y="532" name="top"/>
  <outline>
    <contour>
      <point x="476" y="532" type="line"/>
      <point x="476" y="0" type="line"/>
      <point x="349" y="0" type="line"/>
      <point x="349" y="532" type="line"/>
    </contour>
    <contour>
      <point x="518.289" y="257.505" type="line"/>
      <point x="634.973" y="323.099" type="line"/>
      <point x="812" y="0" type="line"/>
      <point x="659" y="0" type="line"/>
    </contour>
    <contour>
      <point x="466.263" y="257.505" type="line"/>
      <point x="466.263" y="323.324" type="line"/>
      <point x="503.861" y="323.272" type="line"/>
      <point x="636.31" y="532" type="line"/>
      <point x="787.31" y="532" type="line"/>
      <point x="592.755" y="257.505" type="line"/>
    </contour>
    <contour>
      <point x="424" y="246" type="line"/>
      <point x="424" y="333" type="line"/>
      <point x="612.745" y="333" type="line"/>
      <point x="612.745" y="246" type="line"/>
    </contour>
    <contour>
      <point x="308.021" y="257.505" type="line"/>
      <point x="191.337" y="323.099" type="line"/>
      <point x="14.3103" y="0" type="line"/>
      <point x="167.31" y="0" type="line"/>
    </contour>
    <contour>
      <point x="360.047" y="257.505" type="line"/>
      <point x="360.047" y="323.324" type="line"/>
      <point x="322.449" y="323.272" type="line"/>
      <point x="190" y="532" type="line"/>
      <point x="39" y="532" type="line"/>
      <point x="233.555" y="257.505" type="line"/>
    </contour>
    <contour>
      <point x="402.31" y="246" type="line"/>
      <point x="402.31" y="333" type="line"/>
      <point x="213.565" y="333" type="line"/>
      <point x="213.565" y="246" type="line"/>
    </contour>
  </outline>
  <guideline angle="90" name="vertical" x="413" y="0"/>
  <guideline angle="0" name="horizontal" x="0" y="532"/>
</glyph>
<glyph name="kacyr" format="2">
  <advance width="532"/>
  <unicode hex="043A"/>
  <anchor x="250" y="532" name="top"/>
  <outline>
    <contour>
      <point x="182" y="532" type="line"/>
      <point x="182" y="0" type="line"/>
      <point x="55" y="0" type="line"/>
      <point x="55" y="532" type="line"/>
    </contour>
    <contour>
      <point x="224.289" y="257.505" type="line"/>
      <point x="340.973" y="323.099" type="line"/>
      <point x="518" y="0" type="line"/>
      <point x="365" y="0" type="line"/>
    </contour>
    <contour>
      <point x="172.263" y="257.505" type="line"/>
      <point x="172.263" y="323.324" type="line"/>
      <point x="209.861" y="323.272" type="line"/>
      <point x="342.31" y="532" type="line"/>
      <point x="493.31" y="532" type="line"/>
      <point x="298.755" y="257.505" type="line"/>
    </contour>
    <contour>
      <point x="130" y="246" type="line"/>
      <point x="130" y="333" type="line"/>
      <point x="318.745" y="333" type="line"/>
      <point x="318.745" y="246" type="line"/>
    </contour>
  </outline>
  <guideline angle="90" name="vertical" x="250" y="0"/>
  <guideline angle="0" name="horizontal" x="0" y="532"/>
</glyph>
<glyph name="efcyr" format="2">
  <advance width="818"/>
  <unicode hex="0444"/>
  <anchor x="555.5" y="532" name="top"/>
  <outline>
    <contour>
      <point x="222.5" y="-6" type="curve" smooth="yes"/>
      <point x="94.59" y="-6"/>
      <point x="46.5" y="101.35"/>
      <point x="46.5" y="214" type="curve" smooth="yes"/>
      <point x="46.5" y="319" type="line" smooth="yes"/>
      <point x="46.5" y="435.22"/>
      <point x="96.02" y="539"/>
      <point x="226.5" y="539" type="curve" smooth="yes"/>
      <point x="276.02" y="539"/>
      <point x="318.37" y="517.02"/>
      <point x="348.5" y="478" type="curve"/>
      <point x="348.81" y="707" type="line"/>
      <point x="469.99" y="707" type="line"/>
      <point x="470" y="478" type="line"/>
      <point x="500.12" y="517.02"/>
      <point x="542.47" y="539"/>
      <point x="592" y="539" type="curve" smooth="yes"/>
      <point x="722.47" y="539"/>
      <point x="772" y="435.22"/>
      <point x="772" y="319" type="curve" smooth="yes"/>
      <point x="772" y="214" type="line" smooth="yes"/>
      <point x="772" y="101.35"/>
      <point x="723.9" y="-6"/>
      <point x="596" y="-6" type="curve" smooth="yes"/>
      <point x="548.04" y="-6"/>
      <point x="503.69" y="9.82"/>
      <point x="473" y="48" type="curve"/>
      <point x="473" y="-160" type="line"/>
      <point x="345.5" y="-160" type="line"/>
      <point x="345.5" y="48" type="line"/>
      <point x="314.8" y="9.82"/>
      <point x="270.45" y="-6"/>
    </contour>
    <contour>
      <point x="563" y="106" type="curve" smooth="yes"/>
      <point x="629.54" y="106"/>
      <point x="645" y="162.34"/>
      <point x="645" y="218" type="curve" smooth="yes"/>
      <point x="645" y="314" type="line" smooth="yes"/>
      <point x="645" y="371.53"/>
      <point x="627.53" y="426"/>
      <point x="560" y="426" type="curve" smooth="yes"/>
      <point x="495.38" y="426"/>
      <point x="472" y="370.37"/>
      <point x="472" y="314" type="curve" smooth="yes"/>
      <point x="472" y="218" type="line" smooth="yes"/>
      <point x="472" y="158.68"/>
      <point x="496.09" y="106"/>
    </contour>
    <contour>
      <point x="256.12" y="106" type="curve" smooth="yes"/>
      <point x="323.02" y="106"/>
      <point x="347.12" y="158.68"/>
      <point x="347.12" y="218" type="curve" smooth="yes"/>
      <point x="347.12" y="314" type="line" smooth="yes"/>
      <point x="347.12" y="370.37"/>
      <point x="323.73" y="426"/>
      <point x="259.12" y="426" type="curve" smooth="yes"/>
      <point x="191.58" y="426"/>
      <point x="174.12" y="371.53"/>
      <point x="174.12" y="314" type="curve" smooth="yes"/>
      <point x="174.12" y="218" type="line" smooth="yes"/>
      <point x="174.12" y="162.34"/>
      <point x="189.57" y="106"/>
    </contour>
  </outline>
  <guideline angle="90" name="vertical" x="560" y="0"/>
  <guideline angle="0" name="horizontal" x="0" y="532"/>
  <guideline angle="90" name="vertical" x="511.5" y="0"/>
  <guideline angle="0" name="horizontal" x="0" y="707"/>
  <guideline angle="90" name="vertical" x="555.5" y="0"/>
  <guideline angle="0" name="horizontal" x="0" y="532"/>
  <guideline angle="90" name="vertical" x="555.5" y="0"/>
  <guideline angle="0" name="horizontal" x="0" y="532"/>
  <guideline angle="90" name="vertical" x="511.5" y="0"/>
  <guideline angle="0" name="horizontal" x="0" y="707"/>
</glyph>
<glyph name="softcyr" format="2">
  <advance width="481"/>
  <unicode hex="044C"/>
  <outline>
    <component base="dotlessi" xOffset="-5"/>
    <contour>
      <point x="434.99" y="152.752" type="curve" smooth="yes"/>
      <point x="434.99" y="253.172"/>
      <point x="368.127" y="313.539"/>
      <point x="256.901" y="313.539" type="curve" smooth="yes"/>
      <point x="111.112" y="313.539" type="line"/>
      <point x="111.112" y="227.489" type="line"/>
      <point x="234.921" y="227.489" type="line" smooth="yes"/>
      <point x="279.321" y="227.489"/>
      <point x="307.158" y="206.212"/>
      <point x="307.158" y="159.525" type="curve" smooth="yes"/>
      <point x="307.158" y="112.509"/>
      <point x="281.387" y="87.0085"/>
      <point x="234.921" y="87.0395" type="curve" smooth="yes"/>
      <point x="111.112" y="87.1221" type="line"/>
      <point x="111.112" y="0" type="line"/>
      <point x="256.853" y="0" type="line" smooth="yes"/>
      <point x="369.88" y="0"/>
      <point x="434.99" y="55.8314"/>
    </contour>
  </outline>
</glyph>
<glyph name="ereversedcyr" format="2">
  <advance width="517"/>
  <unicode hex="044D"/>
  <anchor x="261" y="532" name="top"/>
  <outline>
    <contour>
      <point x="470.003" y="217" type="curve" smooth="yes"/>
      <point x="470.003" y="316" type="line" smooth="yes"/>
      <point x="470.003" y="456.227"/>
      <point x="396.942" y="539"/>
      <point x="254.003" y="539" type="curve" smooth="yes"/>
      <point x="124.898" y="539"/>
      <point x="44.4464" y="471.92"/>
      <point x="45.0029" y="339" type="curve"/>
      <point x="166.003" y="339" type="line"/>
      <point x="166.003" y="393.617"/>
      <point x="197.849" y="426"/>
      <point x="252.003" y="426" type="curve" smooth="yes"/>
      <point x="321.18" y="426"/>
      <point x="344.003" y="375.517"/>
      <point x="344.003" y="314" type="curve" smooth="yes"/>
      <point x="344.003" y="218" type="line" smooth="yes"/>
      <point x="344.003" y="155.198"/>
      <point x="322.726" y="106"/>
      <point x="252.003" y="106" type="curve" smooth="yes"/>
      <point x="199.209" y="106"/>
      <point x="166.003" y="135.406"/>
      <point x="166.003" y="190" type="curve"/>
      <point x="45.0029" y="190" type="line"/>
      <point x="45.0029" y="183" type="line" smooth="yes"/>
      <point x="45.0029" y="56.6576"/>
      <point x="134.846" y="-6"/>
      <point x="254.003" y="-6" type="curve" smooth="yes"/>
      <point x="398.19" y="-6"/>
      <point x="470.003" y="75.5634"/>
    </contour>
    <contour>
      <point x="386.003" y="246" type="line"/>
      <point x="386.003" y="333" type="line"/>
      <point x="216.175" y="333" type="line"/>
      <point x="216.175" y="246" type="line"/>
    </contour>
  </outline>
  <guideline angle="90" name="vertical" x="261" y="0"/>
  <guideline angle="0" name="horizontal" x="0" y="532"/>
</glyph>
<glyph name="yucyr" format="2">
  <advance width="723"/>
  <unicode hex="044E"/>
  <anchor x="503" y="532" name="top"/>
  <outline>
    <component base="dotlessi" xOffset="-5"/>
    <component base="o" xOffset="201"/>
    <contour>
      <point x="125" y="246" type="line"/>
      <point x="125" y="333" type="line"/>
      <point x="312.222" y="333" type="line"/>
      <point x="312.222" y="246" type="line"/>
    </contour>
  </outline>
  <guideline angle="90" name="vertical" x="118" y="0"/>
  <guideline angle="0" name="horizontal" x="0" y="532"/>
  <guideline angle="90" name="vertical" x="503" y="0"/>
  <guideline angle="0" name="horizontal" x="0" y="532"/>
</glyph>
<glyph name="eukrcyr" format="2">
  <advance width="517"/>
  <unicode hex="0454"/>
  <outline>
    <component base="c"/>
    <contour>
      <point x="130" y="246" type="line"/>
      <point x="130" y="333" type="line"/>
      <point x="299.828" y="333" type="line"/>
      <point x="299.828" y="246" type="line"/>
    </contour>
  </outline>
</glyph>
<glyph name="njecyr" format="2">
  <advance width="799"/>
  <unicode hex="045A"/>
  <outline>
    <contour>
      <point x="752.99" y="152.752" type="curve" smooth="yes"/>
      <point x="752.99" y="253.172"/>
      <point x="686.127" y="313.539"/>
      <point x="574.901" y="313.539" type="curve" smooth="yes"/>
      <point x="429.112" y="313.539" type="line"/>
      <point x="429.112" y="227.489" type="line"/>
      <point x="552.921" y="227.489" type="line" smooth="yes"/>
      <point x="597.321" y="227.489"/>
      <point x="625.158" y="206.212"/>
      <point x="625.158" y="159.525" type="curve" smooth="yes"/>
      <point x="625.158" y="112.509"/>
      <point x="599.387" y="87.0085"/>
      <point x="552.921" y="87.0395" type="curve" smooth="yes"/>
      <point x="429.112" y="87.1221" type="line"/>
      <point x="429.112" y="0" type="line"/>
      <point x="574.853" y="0" type="line" smooth="yes"/>
      <point x="687.88" y="0"/>
      <point x="752.99" y="55.8314"/>
    </contour>
    <contour>
      <point x="373" y="1.13687e-13" type="line"/>
      <point x="499" y="1.13687e-13" type="line"/>
      <point x="499" y="532" type="line"/>
      <point x="373" y="532" type="line"/>
    </contour>
    <contour>
      <point x="55" y="0" type="line"/>
      <point x="181" y="0" type="line"/>
      <point x="181" y="532" type="line"/>
      <point x="55" y="532" type="line"/>
    </contour>
    <contour>
      <point x="372.651" y="2.27374e-13" type="line"/>
      <point x="498.651" y="2.27374e-13" type="line"/>
      <point x="498.651" y="532" type="line"/>
      <point x="372.651" y="532" type="line"/>
    </contour>
    <contour>
      <point x="440.828" y="246" type="line"/>
      <point x="440.828" y="333" type="line"/>
      <point x="120" y="333" type="line"/>
      <point x="120" y="246" type="line"/>
    </contour>
  </outline>
</glyph>
<glyph name="dzhecyr" format="2">
  <advance width="544"/>
  <unicode hex="045F"/>
  <outline>
    <component base="dotlessi" xOffset="-5"/>
    <component base="dotlessi" xOffset="302.651" yOffset="2.27374e-13"/>
    <contour>
      <point x="118" y="0" type="line"/>
      <point x="118" y="87" type="line"/>
      <point x="438.828" y="87" type="line"/>
      <point x="438.828" y="0" type="line"/>
    </contour>
    <contour>
      <point x="210.824" y="-170.089" type="line"/>
      <point x="210.824" y="87" type="line"/>
      <point x="336.824" y="87" type="line"/>
      <point x="336.824" y="-170.089" type="line"/>
    </contour>
  </outline>
  <guideline angle="90" x="272" y="0"/>
  <guideline angle="90" x="211" y="0"/>
  <guideline angle="90" x="337" y="0"/>
</glyph>
<glyph name="endash" format="2">
  <advance width="427"/>
  <unicode hex="2013"/>
  <outline>
    <contour>
      <point x="0" y="413" type="line"/>
      <point x="427" y="413" type="line"/>
      <point x="427" y="295" type="line"/>
      <point x="0" y="295" type="line"/>
    </contour>
  </outline>
</glyph>
<glyph name="quoteright" format="2">
  <advance width="197"/>
  <unicode hex="2019"/>
  <outline>
    <contour>
      <point x="39" y="707" type="line"/>
      <point x="159" y="707" type="line"/>
      <point x="159" y="502" type="line"/>
      <point x="39" y="400" type="line"/>
    </contour>
  </outline>
</glyph>
<glyph name="dagger" format="2">
  <advance width="558"/>
  <unicode hex="2020"/>
  <outline>
    <contour>
      <point x="503" y="369" type="line"/>
      <point x="347" y="369" type="line"/>
      <point x="347" y="-160" type="line"/>
      <point x="213" y="-160" type="line"/>
      <point x="213" y="369" type="line"/>
      <point x="55" y="369" type="line"/>
      <point x="55" y="485" type="line"/>
      <point x="213" y="485" type="line"/>
      <point x="213" y="707" type="line"/>
      <point x="347" y="707" type="line"/>
      <point x="347" y="485" type="line"/>
      <point x="503" y="485" type="line"/>
    </contour>
  </outline>
</glyph>
<glyph name="guilsinglleft" format="2">
  <advance width="305"/>
  <unicode hex="2039"/>
  <outline>
    <contour>
      <point x="18" y="270" type="line"/>
      <point x="250" y="503" type="line"/>
      <point x="250" y="369" type="line"/>
      <point x="153" y="270" type="line"/>
      <point x="250" y="172" type="line"/>
      <point x="250" y="38" type="line"/>
    </contour>
  </outline>
</glyph>
<glyph name="Euro" format="2">
  <advance width="562"/>
  <unicode hex="20AC"/>
  <outline>
    <contour>
      <point x="83" y="247" type="line"/>
      <point x="28" y="247" type="line"/>
      <point x="28" y="330" type="line"/>
      <point x="83" y="330" type="line"/>
      <point x="83" y="381" type="line"/>
      <point x="28" y="381" type="line"/>
      <point x="28" y="464" type="line"/>
      <point x="83" y="464" type="line"/>
      <point x="83" y="480" type="line" smooth="yes"/>
      <point x="83" y="619.218"/>
      <point x="145.396" y="717"/>
      <point x="302" y="717" type="curve" smooth="yes"/>
      <point x="418.164" y="717"/>
      <point x="501.656" y="653.646"/>
      <point x="510" y="534" type="curve"/>
      <point x="395" y="534" type="line"/>
      <point x="385.131" y="583.919"/>
      <point x="354.598" y="608"/>
      <point x="304" y="608" type="curve" smooth="yes"/>
      <point x="239.611" y="608"/>
      <point x="208" y="570.963"/>
      <point x="208" y="481" type="curve" smooth="yes"/>
      <point x="208" y="464" type="line"/>
      <point x="406" y="464" type="line"/>
      <point x="391" y="381" type="line"/>
      <point x="208" y="381" type="line"/>
      <point x="208" y="330" type="line"/>
      <point x="384" y="330" type="line"/>
      <point x="370" y="247" type="line"/>
      <point x="208" y="247" type="line"/>
      <point x="208" y="223" type="line" smooth="yes"/>
      <point x="208" y="157.721"/>
      <point x="228.811" y="97"/>
      <point x="305" y="97" type="curve" smooth="yes"/>
      <point x="356.805" y="97"/>
      <point x="388.767" y="121.561"/>
      <point x="399" y="173" type="curve"/>
      <point x="511" y="173" type="line"/>
      <point x="501.104" y="51.7094"/>
      <point x="419.758" y="-11"/>
      <point x="301" y="-11" type="curve" smooth="yes"/>
      <point x="140.833" y="-11"/>
      <point x="84.9038" y="91.4897"/>
      <point x="83.1832" y="232.035" type="curve" smooth="yes"/>
    </contour>
  </outline>
</glyph>
<glyph name="four.numr" format="2">
  <advance width="355"/>
  <outline>
    <contour>
      <point x="330" y="336" type="line"/>
      <point x="302" y="336" type="line"/>
      <point x="302" y="278" type="line"/>
      <point x="197" y="278" type="line"/>
      <point x="197" y="336" type="line"/>
      <point x="31" y="336" type="line"/>
      <point x="31" y="427" type="line"/>
      <point x="148" y="707" type="line"/>
      <point x="254" y="707" type="line"/>
      <point x="136" y="427" type="line"/>
      <point x="197" y="427" type="line"/>
      <point x="197" y="517" type="line"/>
      <point x="302" y="517" type="line"/>
      <point x="302" y="427" type="line"/>
      <point x="330" y="427" type="line"/>
    </contour>
  </outline>
</glyph>
<glyph name="hardcyr.loclBGR" format="2">
  <advance width="596"/>
  <outline>
    <component base="softcyr.loclBGR" xOffset="75"/>
    <contour>
      <point x="0" y="445" type="line"/>
      <point x="0" y="532" type="line"/>
      <point x="192.064" y="532" type="line"/>
      <point x="192.064" y="445" type="line"/>
    </contour>
  </outline>
</glyph>
<glyph name="shchacyr.loclBGR" format="2">
  <advance width="861"/>
  <outline>
    <component base="m" xScale="-1" yScale="-1" xOffset="827" yOffset="532"/>
    <contour>
      <point x="724.687" y="-169.821" type="line"/>
      <point x="724.687" y="87.268" type="line"/>
      <point x="850.687" y="87.268" type="line"/>
      <point x="850.687" y="-169.821" type="line"/>
    </contour>
  </outline>
</glyph>
<glyph name="three.dnom" format="2">
  <advance width="349"/>
  <outline>
    <contour>
      <point x="38" y="124" type="curve"/>
      <point x="133" y="124" type="line"/>
      <point x="133" y="95.3712"/>
      <point x="138.44" y="80"/>
      <point x="171" y="80" type="curve" smooth="yes"/>
      <point x="201.576" y="80"/>
      <point x="207" y="105.32"/>
      <point x="207" y="130" type="curve" smooth="yes"/>
      <point x="207" y="176.728"/>
      <point x="177.968" y="176"/>
      <point x="141" y="176" type="curve"/>
      <point x="141" y="263" type="line"/>
      <point x="180.989" y="263"/>
      <point x="200" y="263.355"/>
      <point x="200" y="310" type="curve" smooth="yes"/>
      <point x="200" y="331.447"/>
      <point x="191.541" y="348"/>
      <point x="168" y="348" type="curve" smooth="yes"/>
      <point x="136.81" y="348"/>
      <point x="134" y="331.021"/>
      <point x="134" y="305" type="curve"/>
      <point x="40" y="305" type="line"/>
      <point x="40" y="315" type="line" smooth="yes"/>
      <point x="40" y="396.128"/>
      <point x="94.9326" y="436"/>
      <point x="172" y="436" type="curve" smooth="yes"/>
      <point x="254.246" y="436"/>
      <point x="301" y="392.697"/>
      <point x="301" y="310" type="curve" smooth="yes"/>
      <point x="301" y="273.943"/>
      <point x="285.228" y="246.113"/>
      <point x="254" y="228" type="curve"/>
      <point x="300.004" y="210.163"/>
      <point x="308" y="164.958"/>
      <point x="308" y="121" type="curve" smooth="yes"/>
      <point x="308" y="42.4083"/>
      <point x="250.644" y="-7"/>
      <point x="174" y="-7" type="curve" smooth="yes"/>
      <point x="81.8254" y="-7"/>
      <point x="38" y="31.4593"/>
    </contour>
  </outline>
</glyph>
<glyph name="three.sups" format="2">
  <advance width="349"/>
  <outline>
    <contour>
      <point x="38" y="564" type="curve"/>
      <point x="133" y="564" type="line"/>
      <point x="133" y="535.371"/>
      <point x="138.44" y="520"/>
      <point x="171" y="520" type="curve" smooth="yes"/>
      <point x="201.576" y="520"/>
      <point x="207" y="545.32"/>
      <point x="207" y="570" type="curve" smooth="yes"/>
      <point x="207" y="616.728"/>
      <point x="177.968" y="616"/>
      <point x="141" y="616" type="curve"/>
      <point x="141" y="703" type="line"/>
      <point x="181.29" y="703"/>
      <point x="200" y="705.058"/>
      <point x="200" y="751" type="curve" smooth="yes"/>
      <point x="200" y="772.684"/>
      <point x="191.431" y="788"/>
      <point x="168" y="788" type="curve" smooth="yes"/>
      <point x="136.052" y="788"/>
      <point x="134" y="771.641"/>
      <point x="134" y="745" type="curve"/>
      <point x="40" y="745" type="line"/>
      <point x="40" y="756" type="line" smooth="yes"/>
      <point x="40" y="837.128"/>
      <point x="94.9326" y="877"/>
      <point x="172" y="877" type="curve" smooth="yes"/>
      <point x="254.246" y="877"/>
      <point x="301" y="833.697"/>
      <point x="301" y="751" type="curve" smooth="yes"/>
      <point x="301" y="714.943"/>
      <point x="285.228" y="687.113"/>
      <point x="254" y="669" type="curve"/>
      <point x="299.479" y="651.343"/>
      <point x="308" y="604.273"/>
      <point x="308" y="561" type="curve" smooth="yes"/>
      <point x="308" y="482.339"/>
      <point x="250.56" y="433"/>
      <point x="174" y="433" type="curve" smooth="yes"/>
      <point x="81.8254" y="433"/>
      <point x="38" y="471.459"/>
    </contour>
  </outline>
</glyph>
<glyph name="two.dnom" format="2">
  <advance width="354"/>
  <outline>
    <contour>
      <point x="45" y="82" type="line"/>
      <point x="185" y="257" type="line" smooth="yes"/>
      <point x="199.866" y="275.583"/>
      <point x="206" y="288.217"/>
      <point x="206" y="312" type="curve" smooth="yes"/>
      <point x="206" y="332.172"/>
      <point x="195.851" y="348"/>
      <point x="174" y="348" type="curve" smooth="yes"/>
      <point x="146.926" y="348"/>
      <point x="143" y="322.35"/>
      <point x="143" y="301" type="curve"/>
      <point x="42" y="301" type="line"/>
      <point x="42" y="316" type="line" smooth="yes"/>
      <point x="42" y="396.389"/>
      <point x="104.555" y="436"/>
      <point x="179" y="436" type="curve" smooth="yes"/>
      <point x="259.533" y="436"/>
      <point x="313" y="387.149"/>
      <point x="313" y="306" type="curve" smooth="yes"/>
      <point x="313" y="263.257"/>
      <point x="298.022" y="239.112"/>
      <point x="272" y="207" type="curve" smooth="yes"/>
      <point x="178" y="91" type="line"/>
      <point x="313" y="91" type="line"/>
      <point x="313" y="0" type="line"/>
      <point x="45" y="0" type="line"/>
    </contour>
  </outline>
</glyph>
<glyph name="two.tosf" format="2">
  <advance width="524"/>
  <outline>
    <contour>
      <point x="63" y="106" type="line"/>
      <point x="231" y="235" type="line" smooth="yes"/>
      <point x="264.107" y="260.421"/>
      <point x="337" y="308.043"/>
      <point x="337" y="354" type="curve" smooth="yes"/>
      <point x="337" y="400.443"/>
      <point x="311.631" y="434"/>
      <point x="263" y="434" type="curve" smooth="yes"/>
      <point x="214.897" y="434"/>
      <point x="191.556" y="398.755"/>
      <point x="190" y="354" type="curve"/>
      <point x="60" y="354" type="line"/>
      <point x="60" y="357" type="line" smooth="yes"/>
      <point x="60" y="479.03"/>
      <point x="151.764" y="548"/>
      <point x="268" y="548" type="curve" smooth="yes"/>
      <point x="374.898" y="548"/>
      <point x="473.075" y="476.463"/>
      <point x="473.075" y="363.254" type="curve" smooth="yes"/>
      <point x="473.075" y="295.068"/>
      <point x="428.993" y="246.938"/>
      <point x="377" y="209" type="curve" smooth="yes"/>
      <point x="252" y="118" type="line"/>
      <point x="473" y="118" type="line"/>
      <point x="473" y="0" type="line"/>
      <point x="63" y="0" type="line"/>
    </contour>
  </outline>
</glyph>
<glyph name="zero.dnom" format="2">
  <advance width="358"/>
  <outline>
    <contour>
      <point x="41" y="145" type="curve" smooth="yes"/>
      <point x="41" y="291" type="line" smooth="yes"/>
      <point x="41" y="382.869"/>
      <point x="84.2609" y="435"/>
      <point x="179" y="435" type="curve" smooth="yes"/>
      <point x="275.357" y="435"/>
      <point x="316" y="384.726"/>
      <point x="316" y="291" type="curve" smooth="yes"/>
      <point x="316" y="145" type="line" smooth="yes"/>
      <point x="316" y="50.4639"/>
      <point x="279.458" y="-7"/>
      <point x="179" y="-7" type="curve" smooth="yes"/>
      <point x="77.9549" y="-7"/>
      <point x="41" y="49.5135"/>
    </contour>
    <contour>
      <point x="211" y="151" type="curve" smooth="yes"/>
      <point x="211" y="278" type="line" smooth="yes"/>
      <point x="211" y="303.902"/>
      <point x="214.639" y="345"/>
      <point x="179" y="345" type="curve" smooth="yes"/>
      <point x="144.011" y="345"/>
      <point x="146" y="303.832"/>
      <point x="146" y="278" type="curve" smooth="yes"/>
      <point x="146" y="151" type="line" smooth="yes"/>
      <point x="146" y="124.107"/>
      <point x="142.329" y="84"/>
      <point x="179" y="84" type="curve" smooth="yes"/>
      <point x="216.63" y="84"/>
      <point x="211" y="123.255"/>
    </contour>
  </outline>
</glyph>
<glyph name="zero.numr" format="2">
  <advance width="358"/>
  <outline>
    <contour>
      <point x="41" y="423" type="curve" smooth="yes"/>
      <point x="41" y="568" type="line" smooth="yes"/>
      <point x="41" y="659.142"/>
      <point x="84.9402" y="713"/>
      <point x="179" y="713" type="curve" smooth="yes"/>
      <point x="276.067" y="713"/>
      <point x="316" y="662.129"/>
      <point x="316" y="568" type="curve" smooth="yes"/>
      <point x="316" y="423" type="line" smooth="yes"/>
      <point x="316" y="329.426"/>
      <point x="279.044" y="270"/>
      <point x="179" y="270" type="curve" smooth="yes"/>
      <point x="78.3319" y="270"/>
      <point x="41" y="328.453"/>
    </contour>
    <contour>
      <point x="211" y="428" type="curve" smooth="yes"/>
      <point x="211" y="555" type="line" smooth="yes"/>
      <point x="211" y="580.161"/>
      <point x="214.208" y="623"/>
      <point x="179" y="623" type="curve" smooth="yes"/>
      <point x="144.451" y="623"/>
      <point x="146" y="580.092"/>
      <point x="146" y="555" type="curve" smooth="yes"/>
      <point x="146" y="428" type="line" smooth="yes"/>
      <point x="146" y="401.983"/>
      <point x="143.023" y="361"/>
      <point x="179" y="361" type="curve" smooth="yes"/>
      <point x="215.975" y="361"/>
      <point x="211" y="401.201"/>
    </contour>
  </outline>
</glyph>
